<?xml version="1.0" encoding="utf-8"?>
<!-- Generator: Adobe Illustrator 23.0.1, SVG Export Plug-In . SVG Version: 6.00 Build 0)  -->
<svg version="1.1" id="Layer_1" xmlns="http://www.w3.org/2000/svg" xmlns:xlink="http://www.w3.org/1999/xlink" x="0px" y="0px"
	 viewBox="0 0 171.6 171.6" style="enable-background:new 0 0 171.6 171.6;" xml:space="preserve">
<style type="text/css">
	.st0{fill:#F6871F;}
	.st1{fill:#CBCBCA;}
	.st2{fill:#7FB036;}
	.st3{fill:#4D4E4E;}
	.st4{fill:#979797;}
</style>
<g id="circle">
	<circle class="st0" cx="85.8" cy="85.8" r="85.8"/>
</g>
<g id="cat">
	<g id="cat_x5F_parts">
		<path class="st1" d="M62.1,90.9c-0.4-0.4-1-0.2-1.5,0.1c-4.1,2.6-6.2,7.3-8.6,11.5c-0.7,1.2-1.6,2.5-3,2.7
			c-1.1,0.1-2.1-0.5-2.7-1.4c-0.6-0.9-0.8-2-0.8-3.1c-0.1-5.4,3.8-9.8,7.5-13.7c2.3-2.4,4.6-4.8,6.8-7.2L62.1,90.9z"/>
		<path class="st1" d="M73.1,103.5c-1.4,5.1-7.5,7.9-8.5,13.1c-0.1,0.5-0.1,1,0.1,1.4c0.2,0.4,0.7,0.7,1.1,0.9
			c2.5,1.2,5.6,0.4,7.9-1.2c2.3-1.6,3.9-3.9,5.5-6.2c3.1-4.4,6.2-8.8,9.2-13.2L73.1,103.5z"/>
		<path class="st1" d="M141.3,80.4c0.3-0.3,0.9,0,1.2,0.3c2.3,2.2,3.9,5.1,6.2,7.3c1.3,1.2,3,2.2,4.7,1.7c1.7-0.5,2.6-2.6,2.4-4.4
			c-0.3-1.8-1.4-3.4-2.6-4.7c-3.2-3.6-7.2-6.4-11.2-9.1L141.3,80.4z"/>
		<path class="st1" d="M114.5,90.3c3,4,6.2,8.1,8.6,12.5c2,3.5,3.8,7.8,7.6,9.8c1.2,0.6,2.7,0.9,3.8,0.2c0.9-0.6,1.2-1.8,1.1-2.9
			c-0.1-1.1-0.7-2.1-1.2-3c-3.5-6.5-6.4-13.7-10.3-19.9c-0.5-0.7-1-1.5-1.6-2.1c-1.8-1.6-4.4-1.7-6.8-1.7L114.5,90.3z"/>
		<path class="st1" d="M89.4,101.6c-3.2,3.2-7.6,5.1-12.2,5.4c-4.5,0.2-9.1-1.3-12.7-4.1c-5.6-4.5-8.2-12.2-7.3-19.3
			S62.4,69.9,68,65.4s12.6-7.1,19.7-8.3c12.4-2,26.1,0.5,35.1,9.4c2.1,2,4,4.7,3.6,7.6c-0.3,2.7-2.6,4.9-5.2,5.8
			c-5.8,2-11.3-1.6-16.9-0.5c-5.1,0.9-7,8.9-8.9,12.9C93.8,95.7,92.1,99,89.4,101.6z"/>
		<path class="st2" d="M106.9,76.7c0.4-2,1.5-3.9,2.6-5.6c1.8-2.6,3.8-5,6-7.2c1.6-1.6,3.6-3.2,5.9-3c2.1,0.2,3.8,1.9,4.6,3.8
			c0.8,1.9,0.8,4.1,0.7,6.2c-0.1,3.2-0.5,6.5-1.9,9.4c-1.4,2.9-4,5.4-7.2,5.8C112.1,86.7,105.8,82.7,106.9,76.7z"/>
		<path class="st1" d="M144.2,97.1c3.6-3.3,3.8-10.3,3.8-14.8c0.1-5.6-0.7-11.1-2.1-16.5c-0.8-2.9-1.9-6-4.3-7.9
			c-2.3-1.7-5.3-2.2-8.1-1.7c-2.8,0.4-5.4,1.7-8,3c-3.7,1.9-7.4,4-10.3,6.9c-8,7.8-10.5,23.8-4.2,33.2c0.6,0.9,1.3,1.8,2.3,2.4
			c2,1.1,4.4,0.3,6.7,0c7.1-1.2,14.4,0.6,21.1-2.6C142.2,98.5,143.3,98,144.2,97.1z"/>
		<path class="st3" d="M125.3,98.1c1.5-0.2,3-0.4,4.4-1c0.6-0.3,1.2-0.7,1.5-1.3c0.3-0.6,0.4-1.3,0.4-2c-0.1-0.7,1.1-0.9,1.1-0.2
			c0.1,0.9,0,1.8-0.5,2.5c-0.4,0.8-1.1,1.3-1.9,1.7c-1.6,0.7-3.4,1.1-5.1,0.4C125.2,98.1,125.2,98.1,125.3,98.1L125.3,98.1z"/>
		<path class="st3" d="M141.6,83.2c0.2,0,0.5,0.2,0.7,0.3c0.3,0.1,0.6,0.1,0.9,0c0.7-0.2,1.2-0.8,1.5-1.4c0.8-1.3,1-2.8,0.7-4.3
			c-0.2-0.7,0.9-0.8,1.1-0.2c0.5,1.9,0,4.1-1.4,5.6c-0.6,0.6-1.4,1.2-2.4,1.1c-0.4,0-0.8-0.2-1-0.5
			C141.7,83.7,141.3,83.3,141.6,83.2L141.6,83.2z"/>
		<path class="st3" d="M145.8,95.5c0.1,0.3,0.1,0.7,0,1.1c-0.3,1.1-2.1,3-3.2,1.4c-0.5-0.7,0.3-2.1,0.8-2.6
			C144.4,94.5,145.5,94.6,145.8,95.5z"/>
		<path class="st4" d="M62,98.1c0.9,1.8,0.2,4.1-1.2,5.5c-1.5,1.4-3.5,2-5.5,2.2c-3.8,0.4-7.7-0.6-10.9-2.8c-2.7-1.9-4.8-4.6-7-7.1
			c-2.1-2.6-4.4-5.1-7.4-6.7s-6.7-1.9-9.5-0.1c-2.9,1.9-4,5.5-4.1,8.9c-0.2,4.6,1.3,9.4,4.9,12.4c4.4,3.6,10.7,3.5,16.4,3.5
			c5.8-0.1,11.6,0.1,17.2-1.2c2.2-0.5,4.4-1.3,6.2-2.7c2.8-2.3,4.1-5.9,5.3-9.3L62,98.1z"/>
		<path class="st4" d="M110.1,84c-0.1-0.7-0.2-1.4,0.2-2c0.5-0.7,1.4-0.9,2.3-1c2.9-0.2,5.8-0.2,8.6,0.1c0.4,0,0.9,0.1,1.3,0.4
			c0.8,0.6,0.7,1.9,0.3,2.8c-0.9,1.8-2.6,3.2-3.6,4.9c-1.9,3.1-4,5.7-6.4,1.7C111.4,89,110.5,86.4,110.1,84z"/>
		<path class="st4" d="M125.7,64.2c-0.1-0.7-0.2-1.4,0.2-2c0.5-0.7,1.4-0.9,2.3-1c2.2-0.2,8.6-1.2,9.9,1.2c1.4,2.5-2.3,5.3-3.4,7
			c-0.8,1.3-2.2,4.6-4.1,4.2C128,73.1,126,66.2,125.7,64.2z"/>
	</g>
</g>
</svg>
