<?xml version="1.0" encoding="utf-8"?>
<!-- Generator: Adobe Illustrator 23.0.1, SVG Export Plug-In . SVG Version: 6.00 Build 0)  -->
<svg version="1.1" id="Layer_1" xmlns="http://www.w3.org/2000/svg" xmlns:xlink="http://www.w3.org/1999/xlink" x="0px" y="0px"
	 viewBox="0 0 171.6 171.6" style="enable-background:new 0 0 171.6 171.6;" xml:space="preserve">
<style type="text/css">
	.st0{fill:#079B89;}
	.st1{fill:#CBCBCA;}
	.st2{fill:#979797;}
	.st3{fill:#4D4E4E;}
</style>
<g id="circle">
	<circle class="st0" cx="85.8" cy="85.8" r="85.8"/>
</g>
<g id="cat">
	<g id="cat_x5F_parts">
		<path class="st1" d="M86.6,75.7c-11,0.9-19.4-4.1-30-5.4C45.8,69,33,73.8,26.1,82.2c-6.6,8.2-1.2,19,6.7,24.2
			c5.2,3.4,11.7,4.2,17.9,4.2c7.3-0.1,13.9-0.8,20.6-3.2c7.1-2.5,15.8-1.6,23.2-1.6L86.6,75.7z"/>
		<path class="st2" d="M105,106.8c-5.2-1-23.9-5-26.6,1.8c-1,2.6,1.5,4.6,3.7,5.5c5.5,2.3,13.7,1.7,19.7,1.3
			c2.5-0.2,13.2-2.1,10.6-6.4C111.2,107.2,106.8,107.1,105,106.8z"/>
		<path class="st2" d="M97.1,67.5C86.7,63.1,74,64.9,65.2,72c2,2.9,4.2,5.7,6.5,8.4c1.3,1.5,2.8,3.1,4.4,4.2
			c3.8,2.6,8.7,3.2,13.3,3.8L97.1,67.5z"/>
		<path class="st2" d="M127.7,92.3c11.1,1.7,23-3.2,29.8-12.2c-2.6-2.3-5.4-4.5-8.4-6.5c-1.7-1.2-3.4-2.3-5.4-3
			c-4.4-1.6-9.2-1-13.8-0.4L127.7,92.3z"/>
		<path class="st1" d="M88.8,109.2c-3.5-2.5-6.5-5.5-8.8-8.9c-6.2-9.1-6-22.3,2-30.3c5.7-5.7,13.5-9,21.5-10.4
			c6.7-1.1,13.8-0.9,20.2,1.5c11.8,4.3,20.5,16.6,19.6,29.2c-0.7,9-6.1,15.3-13,20.4C118.1,119.7,100.8,117.7,88.8,109.2z"/>
		<path class="st3" d="M111.1,80.9c-0.5-0.9-1.5-1.1-2.4-0.9c-0.7,0.1-1.3,0.8-1.7,1.4c-0.4,0.8-0.3,1.7,0.3,2.3
			c0.5,0.6,1.5,0.8,2.1,0.3c0.2-0.2,0.5-0.4,0.8-0.5c-0.1,0.1-0.3,0.1-0.4,0.2c0.1,0,0.1,0,0.2-0.1c0.3-0.2,0.5-0.3,0.8-0.5
			C111.4,82.5,111.5,81.5,111.1,80.9L111.1,80.9z"/>
		<path class="st3" d="M105,90.3c1.2,1.2,3.1-0.3,3.8-1.4c0.9-1.5,1.3-4.1,0.8-5.8c-0.2-0.7-1.3-0.6-1.2,0.2
			c0.1,1.4,0.2,2.7-0.2,4.1c-0.2,0.7-0.6,1.4-1.2,1.8c-0.6,0.4-1.3,0.3-1.9,0.7C104.8,89.9,104.8,90.2,105,90.3L105,90.3z"/>
		<path class="st3" d="M112.6,90.1c-0.8-0.8-1.7-1.3-2.1-2.5c-0.5-1.2-0.4-2.6-0.6-3.9c-0.1-1-1.5-0.6-1.5,0.2
			c-0.2,2.1,1.2,8.3,4.2,6.6C112.7,90.5,112.7,90.2,112.6,90.1L112.6,90.1z"/>
		<path class="st3" d="M131.5,80.2c0,0.1-0.1,0.4-0.1,0.5c0,0.2,0,0.4,0,0.5c0,0.5,0.2,1,0.5,1.4s1,0.4,1.3,0
			c0.4-0.5,0.5-1.1,0.4-1.7c0-0.2-0.1-0.3-0.1-0.5c-0.1-0.3-0.2-0.5-0.4-0.7C132.7,78.9,131.5,79.2,131.5,80.2L131.5,80.2z"/>
		<path class="st3" d="M87.6,77.2c0,0,0,0.1,0,0.1c0.1-0.2,0.2-0.3,0.2-0.4c-0.8,0.7-0.7,2.3-0.2,3.2c0.3,0.5,0.8,0.7,1.3,0.6
			c0.6-0.2,0.8-0.7,0.9-1.2c0,0.2,0,0.1,0-0.3c0-0.2,0-0.3-0.1-0.5c0-0.2-0.1-0.3-0.1-0.5c-0.1-0.4-0.2-0.9-0.6-1.2
			c0.1,0.2,0.2,0.3,0.2,0.4c0,0,0-0.1,0-0.1C89,76.3,87.9,76.3,87.6,77.2L87.6,77.2z"/>
		<path class="st3" d="M82.1,86.4C82.1,86.4,82.1,86.3,82.1,86.4c0,0.1-0.1,0.2-0.1,0.2c0,0,0,0,0,0c0.1,0.1,0.1,0.2,0.2,0.3
			c-0.3-0.2-0.9-0.2-1.2-0.2c-0.5-0.1-1-0.2-1.6-0.2c-1-0.1-2-0.2-3-0.3c-2-0.1-4.1-0.1-6.1-0.1c-1.2,0-1.3-1.8-0.1-1.9
			c2.3-0.1,4.6,0.1,6.9,0.5c1.1,0.2,2.2,0.4,3.3,0.6c0.7,0.2,2.2,0.2,2.4,1.1c0.1,0.3-0.1,0.6-0.4,0.6c-0.2,0-0.4-0.1-0.4-0.4
			C81.9,86.5,82,86.4,82.1,86.4L82.1,86.4z"/>
		<path class="st3" d="M81.5,89.8c-0.7,0.6-2,0.7-2.8,0.9c-1.1,0.3-2.2,0.6-3.3,1c-2.2,0.7-4.3,1.5-6.4,2.4c-1,0.4-1.5-1.2-0.5-1.6
			c2.1-0.9,4.3-1.7,6.6-2.2c1.1-0.3,2.2-0.5,3.4-0.7c0.9-0.2,2.2-0.6,3-0.2C81.6,89.5,81.6,89.7,81.5,89.8L81.5,89.8z"/>
		<path class="st3" d="M137,89.8C137,89.8,137,89.8,137,89.8c0,0.1,0.1,0.2,0.1,0.3c0,0,0,0,0,0c-0.1,0.1-0.1,0.2-0.2,0.3
			c0.3-0.2,0.9-0.1,1.2-0.1c0.5,0,1-0.1,1.6-0.1c1-0.1,2-0.1,3.1-0.1c2,0,4.1,0.1,6.1,0.2c1.2,0.1,1.4-1.8,0.2-1.9
			c-2.3-0.2-4.6-0.1-6.9,0.1c-1.1,0.1-2.2,0.2-3.4,0.4c-0.8,0.1-2.2,0.1-2.5,0.9c-0.1,0.3,0.1,0.7,0.4,0.6c0.2,0,0.4-0.1,0.4-0.3
			C137.1,89.9,137.1,89.8,137,89.8L137,89.8z"/>
		<path class="st3" d="M137.4,93.3c0.6,0.7,1.9,0.8,2.8,1.1c1.1,0.3,2.2,0.7,3.2,1.2c2.1,0.8,4.2,1.8,6.3,2.8c1,0.5,1.5-1.1,0.6-1.6
			c-2.1-1.1-4.2-1.9-6.5-2.6c-1.1-0.3-2.2-0.6-3.3-0.9c-0.9-0.2-2.1-0.7-3-0.3C137.3,92.9,137.3,93.2,137.4,93.3L137.4,93.3z"/>
		<path class="st2" d="M46.2,96.2c-1.1-1.2-2.3-2.4-3.6-3.4c-0.1-0.1,0-0.3,0.1-0.2c2.6,1.7,4.8,3.9,6.5,6.6
			c0.8,1.3,1.6,2.7,2.1,4.1c0.4,1.2,0.8,2.4,0.8,3.7c-0.7,0.7-1.1,1.6-1.5,2.4c0,0-0.1-0.1-0.1-0.1c0.7-1.7,0.3-4-0.2-5.7
			C49.5,100.9,48.1,98.4,46.2,96.2z"/>
		<path class="st2" d="M48.9,106c4-0.8,8.1-2.2,10.8-5c1.4-1.5,2.4-3.3,3.9-4.8c2.5-2.5,6.2-3.8,9.9-4.3c3.7-0.6,7.8-0.5,11,1.2
			c3.5,1.9,5.5,5.6,4.9,9.2c-0.6,3.3-3.2,6.2-6.5,8c-3.3,1.8-7.1,2.7-10.9,3.3c-6.2,1-12.5,1.4-18.7,1.4c-6.1,0-12.5-0.5-18-2.9
			c-3.1-1.4-6.4-2.7-9.2-4.6c-1.3-0.9-2.9-2-3.5-3.3c-0.8-1.5-0.5-3.6,0.1-5.1c0.5-1.3,1.5-3.4,2.8-4.3c1.1-0.7,0.6,0.4,0.6,1.1
			c-0.1,1.8-0.4,4,1.1,5.5c0.7,0.8,1.5,1.5,2.4,2.1c1.9,1.3,4.1,2.2,6.4,2.7C40.3,107.1,44.7,106.8,48.9,106z"/>
	</g>
</g>
</svg>
