<?xml version="1.0" encoding="utf-8"?>
<!-- Generator: Adobe Illustrator 23.0.1, SVG Export Plug-In . SVG Version: 6.00 Build 0)  -->
<svg version="1.1" xmlns="http://www.w3.org/2000/svg" xmlns:xlink="http://www.w3.org/1999/xlink" x="0px" y="0px"
	 viewBox="0 0 171.65 171.65" style="enable-background:new 0 0 171.65 171.65;" xml:space="preserve">
<style type="text/css">
	.st0{fill:#F9A01B;}
	.st1{fill:#979797;}
	.st2{fill:#CBCBCA;}
	.st3{fill:#7FB036;}
	.st4{fill:#4D4E4E;}
</style>
<g id="circle">
	<circle class="st0" cx="85.83" cy="85.83" r="85.83"/>
</g>
<g id="cat">
	<g id="cat_x5F_parts">
		<path class="st1" d="M101.63,51.37c-6.32-7.32-16.77-10.8-26.22-8.72c0.41,3.01,1.01,5.99,1.78,8.93c0.45,1.7,0.96,3.4,1.82,4.94
			c1.95,3.5,5.44,5.81,8.81,7.98L101.63,51.37z"/>
		<path class="st1" d="M56.75,89.55c0.13,1.8-1.62,3.35-3.42,3.42c-1.8,0.07-3.48-1.03-4.58-2.46c-1.78-2.32-2.26-5.47-1.75-8.36
			c0.51-2.88,1.93-5.54,3.63-7.92c2.05-2.88,4.51-5.44,6.65-8.25c2.14-2.81,4-5.96,4.56-9.45c0.56-3.49-0.37-7.37-3.05-9.68
			c-1.33-1.15-2.99-1.84-4.69-2.27c-2.27-0.57-4.74-0.66-6.87,0.3c-2.13,0.95-3.81,3.13-3.7,5.46c0.06,1.2,0.76,2.51,1.95,2.72
			c1.19,0.22,2.25-0.71,3.22-1.44c1.51-1.13,3.27-1.92,5.11-2.3c0.39-0.08,0.81-0.13,1.15,0.07c0.27,0.16,0.43,0.44,0.56,0.71
			c0.97,1.96,1.31,4.26,0.81,6.39c-0.93,4-4.44,6.76-7.31,9.7c-2.62,2.68-4.87,5.81-6.09,9.35c-2.85,8.29,0.92,18.35,8.52,22.71
			L56.75,89.55z"/>
		<path class="st1" d="M120.96,55.52c2.58-9.32-0.34-19.95-7.32-26.64c-2.27,2.01-4.42,4.17-6.43,6.44
			c-1.16,1.32-2.29,2.69-3.09,4.25c-1.83,3.56-1.81,7.75-1.74,11.76L120.96,55.52z"/>
		<path class="st2" d="M64.1,109.89c1.9,8.73-2.1,18,0.06,26.67c0.22,0.87,0.5,1.74,0.46,2.64c-0.04,0.9-0.47,1.84-1.3,2.19
			c-4.44-7.07-6.69-15.5-6.35-23.84L64.1,109.89z"/>
		<path class="st2" d="M108.64,92.81c-5.94,15.24-7.58,32.12-4.68,48.22c0.14,0.8,0.2,1.82-0.51,2.21c-0.96,0.53-1.92-0.7-2.29-1.73
			c-1.63-4.42-2.61-9.08-2.89-13.78c-0.18-2.91-1.06-5.59-1.24-8.54c0.05,1.6-5.75,4.19-6.38,6.36c-0.25,0.85-0.27,1.74-0.29,2.62
			c-0.1,4.31-0.2,8.61-0.3,12.92c-0.03,1.07-0.52,4.59-2.52,3.77c-0.98-0.4-0.7-3.57-0.83-4.47c-0.73-5.15-1.74-10.27-2.62-15.39
			c-0.8-4.69-1.76-9.72-5.18-13.03c-6.09-5.91-17.47-3.37-17.96,6.16c-0.13,2.54,0.66,5.37-0.81,7.44
			c-1.58,2.22-3.83,2.59-4.76,5.19c-0.76,2.13-0.65,6.21-0.54,8.53c0.09,1.99-0.07,4.62-2,5.12c-1.47,0.38-3.03-15.45-3.18-16.92
			c-0.28-2.83,2.15-3.79,2.74-6.06c0,0,0,0,0,0c1.48-5.66-5.09-10.74-5.69-16.3c-0.39-3.64-0.78-7.39,0.26-10.9
			c1.16-3.93,3.98-7.12,6.85-10.05c2.8-2.86,5.93-5.71,9.83-6.57c4.76-1.05,9.78,1.15,13.31,4.51c3.68,3.5,6.59,7.84,9.34,12.07
			c0.87,1.34,2.03,2.84,3.63,2.79c1.48-0.05,2.52-1.41,3.34-2.65c1.19-1.8,2.39-3.59,3.58-5.39c0.79-1.19,1.61-2.68,0.97-3.96
			L108.64,92.81z"/>
		<path class="st3" d="M107.81,95.44c-1.37,0.52-2.89,0.36-4.32,0.06c-3.69-0.78-7.46-2.74-8.92-6.22c-0.37-0.88-0.53-2.02,0.14-2.7
			c0.71-0.72,1.91-0.51,2.88-0.22C99.9,87.06,115.57,92.49,107.81,95.44z"/>
		<path class="st2" d="M126.96,85.18c4.48-4.13,6.67-7.88,8.27-13.71c0.57-2.07,1.08-4.2,0.88-6.33
			c-0.71-7.8-7.96-12.92-14.13-16.23c-5.39-2.89-11.11-5.44-17.19-5.99c-4.32-0.39-8.9,0.32-12.38,2.92
			c-3.73,2.78-5.7,7.27-7.43,11.58c-1.8,4.49-3.55,9.3-2.63,14.05c0.68,3.5,2.76,6.56,5.09,9.27c4.33,5.03,11.46,11.97,18.38,12.93
			C113.13,94.67,121.8,89.93,126.96,85.18z"/>
		<path class="st4" d="M103.22,58.65c0.11-0.2,0.35-0.21,0.55-0.15c0.25,0.08,0.42,0.26,0.52,0.5c0.21,0.52,0.11,1.15-0.33,1.52
			c-0.56,0.46-1.4,0.27-1.83-0.27c-0.46-0.57-0.53-1.4-0.1-2c0.16-0.22,0.45-0.4,0.74-0.36c0.57,0.08,1.14,0.28,1.39,0.84
			c0.32,0.69-0.06,1.55-0.82,1.72c-0.73,0.16-1.39-0.46-1.31-1.19c0.03-0.29,0.17-0.56,0.4-0.75c0.37-0.31,0.79-0.26,1.18-0.05
			c0.32,0.17,0.46,0.68,0.33,1.01c-0.14,0.34-0.49,0.63-0.88,0.58c0.05,0,0.11-0.01,0.16-0.01c0.13-0.07,0.27-0.13,0.4-0.2
			c0.19-0.19,0.27-0.41,0.23-0.65c0.06,0.22-0.03,0.08-0.28-0.42c-0.15-0.05-0.31-0.11-0.46-0.16c-0.2,0.1-0.4,0.2-0.6,0.3
			c-0.04,0.05-0.07,0.11-0.07,0.17c-0.03,0.14,0.03,0.29,0.09,0.42c0.04,0.09,0.08,0.03-0.01,0.01c0.14,0.02-0.03-0.01-0.08-0.03
			c0.27-0.05,0.54-0.1,0.81-0.16c-0.07,0.06-0.06,0.05,0.01-0.02c0.04-0.1,0.05-0.11,0.01-0.03c-0.02,0.09-0.02,0.08,0-0.03
			c0,0.04-0.01,0.08-0.01,0.12c0.01-0.17,0.01-0.02,0.02,0.04c-0.04-0.2,0.09,0.16-0.01-0.01c0.02,0.03,0.05,0.06,0.07,0.09
			c0.05,0.06,0.05,0.06,0,0c0.11,0.04-0.02,0-0.06-0.01c0.08,0,0.08,0.01,0,0.01c0.07-0.02,0.07-0.01-0.01,0.01
			c0.06-0.03,0.06-0.03-0.01,0.01c0.04-0.04,0.05-0.04,0.02-0.01c-0.02,0.09,0.07-0.16,0.01-0.02c0.03-0.06,0.05-0.13,0.06-0.19
			c-0.02,0.11,0-0.05,0-0.06c0-0.06,0-0.07,0-0.02c0-0.03-0.01-0.06-0.02-0.09c-0.04-0.14-0.02-0.09-0.08-0.21
			C103.21,58.84,103.17,58.74,103.22,58.65L103.22,58.65z"/>
		<path class="st4" d="M121.59,52.56c0.06-0.05,0.1-0.12,0.18-0.16c0.09-0.04,0.19-0.04,0.28-0.04c0.22,0.01,0.39,0.12,0.54,0.27
			c0.29,0.29,0.39,0.74,0.25,1.12c-0.32,0.86-1.56,1.05-2.1,0.31c-0.6-0.83-0.1-2.12,0.99-2.12c0.49,0,0.95,0.32,1.18,0.75
			c0.28,0.53,0.13,1.12-0.28,1.53c-0.31,0.31-0.86,0.26-1.17-0.01c-0.3-0.26-0.44-0.83-0.15-1.16c0.06-0.07,0.05-0.04-0.03,0.09
			c-0.02,0.16-0.03,0.2-0.02,0.1c0.02,0.16,0.02,0.2,0,0.1c-0.02-0.09-0.01-0.06,0.04,0.08c-0.04-0.08-0.02-0.06,0.05,0.06
			c-0.06-0.07-0.04-0.05,0.07,0.04c-0.07-0.05-0.05-0.04,0.08,0.03c0.08,0.03,0.17,0.03,0.26,0.01c-0.08,0.02-0.06,0.01,0.07-0.03
			c0.11-0.08,0.13-0.09,0.06-0.04c0.08-0.1,0.1-0.11,0.05-0.05c0.05-0.11,0.06-0.13,0.03-0.05c0.02-0.12,0.02-0.14,0.01-0.06
			c0,0.08-0.01,0.06-0.01-0.06c0,0.03,0.01,0.06,0.02,0.09c0-0.05-0.02-0.09-0.06-0.13c-0.04-0.05-0.04-0.05,0,0
			c-0.03-0.04-0.08-0.07-0.13-0.08c0.07,0.02,0.06,0.03-0.03,0.01c0.03,0,0.07,0.01,0.1,0.01c-0.09,0.01-0.1,0.01-0.02,0
			c0.07-0.02,0.07-0.01,0,0.01c0.06-0.03,0.06-0.03,0.01,0.01c0.05-0.04,0.05-0.04,0.01,0c-0.02,0.06-0.02,0.05,0.01-0.02
			c-0.01,0.02-0.01,0.04,0,0.05c0-0.06,0-0.05-0.02-0.1c-0.03-0.06-0.09-0.12-0.13-0.18c-0.02-0.03-0.08-0.14-0.1-0.15
			C121.52,52.76,121.52,52.62,121.59,52.56L121.59,52.56z"/>
		<path class="st4" d="M119.46,61.53c0.13,1.55-2.41,2.44-3.78,2.49c-4.04,0.14-0.55-3.8,1.66-4.09c0.66-0.09,1.39,0.14,1.77,0.69
			C119.32,60.95,119.44,61.25,119.46,61.53z"/>
		<path class="st4" d="M125.71,63.97c0.72,0.61,0.58,1.97,0.25,2.74c-0.49,1.14-1.47,1.91-2.71,2.04c-1.51,0.16-2.94-0.59-4.06-1.54
			c-1.22-1.04-2.43-2.4-3.03-3.91c-0.42-1.06,1.03-1.81,1.6-0.8c0.1,0.18,0.21,0.37,0.31,0.55c0.37,0.65-0.5,1.42-1.1,0.97
			c-0.17-0.13-0.34-0.25-0.5-0.38c0.39-0.44,0.78-0.88,1.17-1.33c1.27,1.8,2.53,4.12,4.79,4.82c0.91,0.28,1.83,0.02,2.46-0.69
			c0.28-0.31,0.49-0.7,0.61-1.11c0.13-0.44,0.06-0.87,0.12-1.31C125.61,63.97,125.67,63.93,125.71,63.97L125.71,63.97z"/>
		<path class="st4" d="M111.76,68.38c0.25,0.52,0.39,0.99,0.76,1.45c0.34,0.42,0.76,0.77,1.26,0.98c0.99,0.41,2.18,0.16,2.98-0.55
			c0.8-0.72,1.01-1.89,0.92-2.92c-0.05-0.57-0.19-1.13-0.35-1.67c-0.09-0.3-0.19-0.59-0.3-0.88c-0.05-0.13-0.1-0.25-0.16-0.38
			c-0.04-0.1-0.18-0.19-0.07-0.19c-0.9-0.05-1.02-1.21-0.32-1.62c1.94-1.16,2.74,2.53,2.92,3.74c0.27,1.76,0.03,3.7-1.39,4.93
			c-1.21,1.04-3.01,1.32-4.44,0.58c-1.13-0.58-2.33-2.09-1.94-3.45C111.64,68.33,111.73,68.33,111.76,68.38L111.76,68.38z"/>
		<path class="st4" d="M103.89,67.77c0.01-0.01,0.02-0.02,0.03-0.03c-0.02,0.09-0.04,0.18-0.05,0.27c-0.01-0.01-0.01-0.02-0.02-0.03
			c0.09,0.06,0.17,0.12,0.26,0.17c-0.3-0.04-0.73,0.18-1.02,0.26c-0.43,0.13-0.86,0.25-1.29,0.38c-0.84,0.25-1.67,0.53-2.49,0.84
			c-1.63,0.61-3.22,1.33-4.81,2.02c-0.95,0.41-1.66-0.98-0.72-1.45c1.76-0.88,3.65-1.52,5.54-2.04c0.94-0.26,1.88-0.49,2.83-0.69
			c0.64-0.13,1.77-0.56,2.27,0c0.16,0.18,0.13,0.55-0.13,0.64c-0.18,0.06-0.38,0.05-0.46-0.15
			C103.82,67.9,103.83,67.82,103.89,67.77L103.89,67.77z"/>
		<path class="st4" d="M104.65,70.68c-0.3,0.72-1.31,1.24-1.9,1.72c-0.76,0.62-1.5,1.26-2.23,1.91c-1.46,1.31-2.84,2.72-4.18,4.14
			c-0.64,0.68-1.56-0.41-0.95-1.09c1.35-1.49,2.82-2.83,4.4-4.07c0.77-0.61,1.58-1.18,2.39-1.73c0.63-0.42,1.49-1.2,2.28-1.19
			C104.6,70.39,104.71,70.56,104.65,70.68L104.65,70.68z"/>
		<path class="st4" d="M127.47,58.92c0.86-1.03,1.87-1.92,2.74-2.95c0.41-0.48,0.81-0.98,1.19-1.48c0.4-0.53,0.75-1.23,1.27-1.65
			c0.5-0.41,1.32,0.08,1.08,0.73c-0.23,0.63-0.8,1.17-1.23,1.68c-0.45,0.53-0.91,1.04-1.38,1.54c-0.94,0.99-1.94,2.03-3.1,2.77
			C127.66,59.8,127.19,59.26,127.47,58.92L127.47,58.92z"/>
		<path class="st4" d="M129.12,62.08c0.44-0.4,1.07-0.58,1.62-0.78c0.66-0.24,1.31-0.46,1.98-0.66c1.33-0.41,2.67-0.77,4.04-1.05
			c0.67-0.14,0.98,0.87,0.3,1.02c-1.33,0.3-2.66,0.58-3.98,0.9c-0.65,0.16-1.29,0.31-1.94,0.47c-0.61,0.15-1.28,0.4-1.92,0.34
			C129.11,62.31,129.02,62.17,129.12,62.08L129.12,62.08z"/>
	</g>
</g>
</svg>
