<?xml version="1.0" encoding="utf-8"?>
<!-- Generator: Adobe Illustrator 23.0.1, SVG Export Plug-In . SVG Version: 6.00 Build 0)  -->
<svg version="1.1" id="Layer_1" xmlns="http://www.w3.org/2000/svg" xmlns:xlink="http://www.w3.org/1999/xlink" x="0px" y="0px"
	 viewBox="0 0 171.65 171.65" style="enable-background:new 0 0 171.65 171.65;" xml:space="preserve">
<style type="text/css">
	.st0{fill:#7B0046;}
	.st1{fill:#CBCBCA;}
	.st2{fill:#979797;}
	.st3{fill:#007985;}
	.st4{fill:#DB8CB0;}
	.st5{fill:#4D4E4E;}
</style>
<g id="circle">
	<circle class="st0" cx="85.83" cy="85.83" r="85.83"/>
</g>
<g id="cat">
	<g id="cat_x5F_parts">
		<path class="st1" d="M100.65,83.57c2.59,1.98,6.35,1.58,9.25,0.11c2.91-1.46,5.27-3.81,7.89-5.72c2.39-1.74,5.63-3.16,8.22-1.72
			c2.16,1.2,2.91,4.39,1.5,6.43c-1.89,2.75-5.98,2.54-8.98,4.03c-3.11,1.54-4.97,4.9-8.03,6.56c-3.39,1.84-7.52,1.23-11.32,0.57
			c-1.23-0.21-2.81-0.9-2.55-2.12L100.65,83.57z"/>
		<path class="st1" d="M110.69,125.27c1.81-0.31,3.62-0.63,5.43-0.95c1.67-0.3,3.57-0.52,4.88,0.53c1.55,1.25,1.45,3.78,0.29,5.39
			c-1.16,1.61-3.07,2.49-4.91,3.21c-5.47,2.12-11.26,3.4-17.12,3.78L110.69,125.27z"/>
		<path class="st2" d="M75.73,53.45c2.29-2.17,4.58-4.35,6.88-6.52c0.55-0.52,1.12-1.08,1.33-1.8c1.02-3.49-6.29-5.38-8.56-5.98
			c-4.21-1.11-8.8-1-12.82,0.67c-0.78,0.32,2.82,8.66,3.22,9.45c1.5,2.93,3.35,5.57,5.68,7.85c1.86,1.82,2.63-0.48,3.52-1.91
			c1.13-1.81,2.41-3.52,3.84-5.11L75.73,53.45z"/>
		<path class="st2" d="M95.22,40.24c-0.24-0.52-0.12-1.12,0.03-1.67c1.46-5.68,4.4-10.98,8.45-15.23c3.71,2.28,6.49,5.94,8.06,10
			c1.57,4.06,1.98,8.52,1.57,12.86L95.22,40.24z"/>
		<path class="st1" d="M78.58,65.73c-1.95,2.79-3.89,5.58-5.85,8.38c-6.86,9.82-13.87,20.01-16.1,31.77s1.7,25.57,12.26,31.21
			c4.7,2.51,10.17,3.16,15.49,3.31c6.28,0.18,12.76-0.32,18.4-3.07c5.65-2.74,10.35-8.11,10.84-14.38
			c0.54-6.91-3.85-13.08-7.22-19.15c-5.81-10.44-9.01-22.31-9.23-34.26L78.58,65.73z"/>
		<path class="st3" d="M79.58,85.39c4.56,2.68,10.06,3.55,15.37,3.16c3.17-0.23,6.72-1.18,8.19-3.96c1.59-3.01-0.06-6.73-2.31-9.3
			c-5.52-6.3-15.31-9.03-23.4-6.49C67.27,71.97,72.84,81.44,79.58,85.39z"/>
		<path class="st1" d="M119.29,73.31c-2.14,2.87-4.98,5.05-7.95,6.83c-9.21,5.54-20.63,7.52-29.93,2.98
			c-9.3-4.54-15.41-16.57-12.17-27.36c1.74-5.84,4.78-10.34,8.58-13.65c5.8-5.07,13.36-7.35,20.77-7.33
			C117.94,34.82,136.25,50.56,119.29,73.31z"/>
		<path class="st2" d="M67.02,133.47c-2.47,1.79-11.48-3.16-13.74-4.31c-3.88-1.98-7.76-4.23-10.46-7.65
			c-2.78-3.53-4.01-7.98-4.25-12.52c-0.09-1.59-0.05-3.18,0.09-4.76c0.03-0.38,0.07-0.75,0.11-1.13c0.29-2.5,0.77-4.97,1.32-7.43
			c0.47-2.07,0.98-4.11,1.46-6.18c0.41-1.77,0.8-3.54,1.11-5.33c0.04-0.24,0.08-0.5,0.1-0.74c0.13-1.2,0.04-2.47-0.86-3.21
			c-0.45-0.37-1.02-0.52-1.6-0.53c-0.16,0-0.31,0-0.48,0.02c-0.35,0.04-0.7,0.11-1.03,0.22c-1.39,0.43-2.62,1.23-3.83,2.07
			c-0.9,0.63-1.79,1.28-2.73,1.83c-2.21,1.29-5.22,1.91-7.16,0.26c-2.42-2.07-1.5-5.99-0.02-8.8c1.69-3.21,3.88-6.31,6.5-8.65
			c1.81-1.61,3.83-2.85,6.06-3.51c2.79-0.83,5.88-0.73,9.28,0.71c1.4,0.6,2.57,1.42,3.53,2.4c1.56,1.58,2.61,3.59,3.28,5.8
			c1.32,4.28,1.29,9.31,1.06,13.41c-0.02,0.4-0.05,0.8-0.08,1.2c-0.16,2.19-0.41,4.38-0.67,6.56c-0.4,3.38-0.82,6.75-0.97,10.13
			c-0.06,1.27-0.08,2.53-0.04,3.8c0.04,1.24,0.13,2.47,0.29,3.68c0.89,6.75,3.8,12.92,9.66,16.9
			C64.36,128.62,69.9,131.36,67.02,133.47z"/>
		<path class="st4" d="M112,65.5c1.28,2.14,1.36,4.96,0.22,7.18c-1.65-0.05-3.08-1.69-2.88-3.33c0.21-1.78,0.41-3.52,0.44-5.31
			C111.23,64.69,110.57,64.84,112,65.5z"/>
		<path class="st5" d="M108.07,61.45c0.89,1.8,1.58,4.19,0.61,6.09c-0.69,1.34-2.45,2.43-3.92,1.69c-0.9-0.45-1.7,0.89-0.8,1.37
			c2.15,1.15,4.75,0.09,5.94-1.95c1.45-2.48,0.22-5.5-1.54-7.43C108.21,61.07,107.99,61.27,108.07,61.45L108.07,61.45z"/>
		<path class="st5" d="M108.53,61.66c0.6,1.82,2.01,4.09,3.98,4.62c1.78,0.48,3.89-0.26,4.47-2.12c0.33-1.09-1.33-1.52-1.69-0.47
			c-0.42,1.24-2.01,1.36-3.07,0.97c-1.54-0.58-2.29-2.06-3.33-3.21C108.74,61.3,108.46,61.46,108.53,61.66L108.53,61.66z"/>
		<path class="st5" d="M111.55,50.65c-0.35-1.11,0.49-2.66,1.54-3.12c1.02-0.45,2.26,0.03,2.84,0.93c0.79,1.23,2.66,0.14,1.95-1.14
			c-1.08-1.98-3.76-2.82-5.74-1.69c-2,1.14-2.19,3.4-1.21,5.27C111.12,51.24,111.66,51.01,111.55,50.65L111.55,50.65z"/>
		<path class="st5" d="M92.6,58.95c-1.33-1.8-4.22-2.73-6.27-1.75c-1.89,0.89-2.88,3.13-1.94,5.06c0.57,1.15,2.33,0.14,1.73-1.02
			c-0.54-1.05,0.52-2.24,1.49-2.53c1.58-0.48,3,0.52,4.43,0.97C92.42,59.81,92.86,59.31,92.6,58.95L92.6,58.95z"/>
		<path class="st5" d="M108.1,58.58c-1.59,0.05-5.04,2.04-3.38,3.97c0.71,0.84,1.89,0.84,2.79,0.3c1.04-0.63,1.7-1.79,2.07-2.91
			c0.18-0.57-0.22-1.09-0.73-1.29c-1.87-0.69-3.95,0.73-4.03,2.69c-0.05,1.17,1.8,1.44,2.06,0.28c0.14-0.67,0.72-1.17,1.42-0.95
			c-0.25-0.43-0.49-0.86-0.73-1.29c-0.13,0.56-0.34,1.09-0.7,1.53c-0.11,0.14-0.72,0.81-0.9,0.49c-0.1-0.18,0.76-0.98,0.9-1.1
			c0.43-0.37,0.96-0.65,1.48-0.88C108.75,59.24,108.53,58.57,108.1,58.58L108.1,58.58z"/>
		<path class="st2" d="M104.22,136.45c6.93-4.73,12.36-13.24,9.32-21.81c-1.29-3.64-3.89-6.87-7.49-8.4
			c-4.28-1.82-9.16-0.84-13.06,1.47c-4.83,2.85-8.09,7.61-11.07,12.22c-0.64,0.98,0.92,1.89,1.56,0.91
			c2.46-3.78,5.07-7.66,8.71-10.41c3.28-2.46,7.62-4.02,11.71-3.02c3.55,0.87,6.26,3.67,7.69,6.95c1.51,3.48,1.53,7.27,0.42,10.86
			c-1.36,4.4-4.35,8.22-7.86,11.14C104.11,136.4,104.18,136.47,104.22,136.45L104.22,136.45z"/>
		<path class="st2" d="M87.15,92.84c2.54,5.42,6.51,10.17,10.97,14.12c0.77,0.69,1.9-0.49,1.12-1.12
			c-4.66-3.75-8.46-8.25-11.97-13.06C87.22,92.71,87.12,92.76,87.15,92.84L87.15,92.84z"/>
		<path class="st5" d="M84.06,72.95c0.01-0.01,0.02-0.02,0.04-0.03c-0.02,0.1-0.04,0.18-0.06,0.28c-0.01-0.01-0.01-0.02-0.02-0.04
			c0.09,0.06,0.18,0.12,0.27,0.18c-0.3-0.04-0.75,0.18-1.04,0.27c-0.44,0.13-0.89,0.26-1.32,0.38c-0.86,0.26-1.71,0.54-2.55,0.86
			c-1.68,0.63-3.3,1.36-4.94,2.08c-0.97,0.43-1.69-1.01-0.74-1.49c1.81-0.9,3.74-1.56,5.68-2.09c0.96-0.27,1.93-0.5,2.9-0.7
			c0.65-0.13,1.81-0.58,2.33,0c0.16,0.18,0.13,0.56-0.13,0.66c-0.19,0.07-0.39,0.06-0.48-0.15C84,73.08,84,73,84.06,72.95
			L84.06,72.95z"/>
		<path class="st5" d="M84.85,75.94c-0.3,0.74-1.34,1.28-1.95,1.77c-0.78,0.63-1.54,1.29-2.29,1.96c-1.49,1.34-2.91,2.79-4.29,4.25
			c-0.66,0.7-1.6-0.42-0.97-1.11c1.38-1.53,2.89-2.9,4.51-4.18c0.79-0.63,1.62-1.21,2.46-1.77c0.65-0.44,1.52-1.23,2.33-1.22
			C84.79,75.63,84.91,75.81,84.85,75.94L84.85,75.94z"/>
		<path class="st5" d="M120.92,52.52c0.89-1.06,1.91-1.97,2.81-3.02c0.42-0.5,0.83-1,1.22-1.52c0.41-0.54,0.77-1.26,1.3-1.69
			c0.51-0.42,1.35,0.08,1.1,0.74c-0.24,0.65-0.82,1.2-1.26,1.72c-0.46,0.54-0.93,1.07-1.42,1.58c-0.97,1.02-1.99,2.09-3.18,2.85
			C121.12,53.41,120.64,52.86,120.92,52.52L120.92,52.52z"/>
		<path class="st5" d="M122.61,55.75c0.45-0.41,1.1-0.6,1.67-0.8c0.68-0.25,1.35-0.48,2.03-0.69c1.37-0.42,2.74-0.79,4.14-1.08
			c0.69-0.14,1,0.89,0.31,1.05c-1.36,0.3-2.73,0.6-4.08,0.92c-0.67,0.16-1.32,0.32-1.99,0.49c-0.63,0.15-1.31,0.42-1.97,0.34
			C122.61,55.99,122.51,55.85,122.61,55.75L122.61,55.75z"/>
	</g>
</g>
</svg>
