<?xml version="1.0" encoding="utf-8"?>
<!-- Generator: Adobe Illustrator 23.0.1, SVG Export Plug-In . SVG Version: 6.00 Build 0)  -->
<svg version="1.1" id="Layer_1" xmlns="http://www.w3.org/2000/svg" xmlns:xlink="http://www.w3.org/1999/xlink" x="0px" y="0px"
	 viewBox="0 0 171.65 171.65" style="enable-background:new 0 0 171.65 171.65;" xml:space="preserve">
<style type="text/css">
	.st0{fill:#007B7B;}
	.st1{fill:#CBCBCA;}
	.st2{fill:#979797;}
	.st3{fill:#F68D3D;}
	.st4{fill:#4D4E4E;}
	.st5{fill:#F16624;}
</style>
<g id="circle">
	<circle class="st0" cx="85.83" cy="85.83" r="85.83"/>
</g>
<g id="cat">
	<g id="cat_x5F_parts">
		<path class="st1" d="M107.31,107.61c4.02-0.14,8.1-0.28,12,0.69c0.88,0.22,1.79,0.53,2.35,1.24c0.56,0.71,0.55,1.93-0.24,2.37
			c-0.35,0.2-0.76,0.21-1.16,0.22c-6.5,0.09-13.01-0.36-19.44-1.36c-1.51-0.24-3.27-0.71-3.77-2.14L107.31,107.61z"/>
		<path class="st2" d="M80.02,77.56c3.05-1.14,6.1-2.29,9.15-3.42c0.73-0.28,1.49-0.57,1.99-1.18c2.37-2.9-3.8-7.64-5.71-9.12
			c-3.56-2.75-7.95-4.49-12.44-4.53c-0.87-0.01-0.81,9.35-0.74,10.26c0.25,3.38,0.94,6.63,2.23,9.74c1.03,2.47,2.69,0.61,4.1-0.39
			c1.79-1.27,3.7-2.37,5.7-3.31L80.02,77.56z"/>
		<path class="st1" d="M39.11,102.3c0.53,1.49,0,3.18,0.36,4.72c0.63,2.67,3.55,3.98,5.01,6.27c1.01,1.58,1.67,3.89,3.49,4.08
			c1.25,0.12,2.39-1.04,2.53-2.33c0.13-1.29-0.57-2.56-1.56-3.35c-1.37-1.1-3.36-1.55-4.18-3.13c-0.45-0.88-0.43-1.92-0.4-2.91
			c0.16-6.09,0.34-12.2,0.51-18.29L39.11,102.3z"/>
		<path class="st2" d="M35.38,63.84c-3.66-5.26-4.47-12.38-2.58-18.55c1.9-6.17,6.34-11.36,11.8-14.54c2.97-1.73,6.3-2.91,9.71-2.92
			s6.9,1.25,9.24,3.81c2.34,2.56,3.35,6.48,2.14,9.77c-0.25,0.67-0.6,1.34-1.16,1.76c-1.44,1.1-3.44,0.28-5.11-0.4
			c-3.37-1.37-7.02-1.98-10.64-1.79c-1.95,0.1-3.93,0.45-5.64,1.4c-2.78,1.55-4.59,4.55-5.58,7.65c-1.71,5.36-1.18,11.7,2.36,16.01
			L35.38,63.84z"/>
		<path class="st1" d="M69.56,79.18c1.15-0.39,10.12,11.62,11.14,13.46c3.16,5.71,2.82,12.82,8.11,17.48
			c3.35,2.96,8.01,3.61,12.38,4.14c4.79,0.59,9.94,2.11,14.68,2.06c1.65-0.02,5.11-1.29,4.87,1.31c-0.36,3.78-7.24,2.34-9.41,2.26
			c-4.07-0.14-8.14-0.44-12.21-0.76c-8.32-0.66-16.64-1.45-24.99-1.38c-3.62,0.03-7.29,0.22-10.79-0.72
			c-4.6-1.23-8.59-4.35-11.58-8.16c-2.99-3.82-5.04-8.33-6.72-12.92c-0.34-0.93-0.93-2.04-1.88-1.95c0.62,3.7-0.32,7.65-2.52,10.64
			c-1.68,2.29-4.24,4.9-3.06,7.5c0.66,1.48,2.29,2.15,3.66,2.97c1.37,0.81,2.74,2.28,2.32,3.85c-0.54,2-3.37,2.08-5.09,1.03
			c-2.56-1.56-4.08-4.49-4.76-7.48s-0.63-6.09-0.77-9.15c-0.26-5.86-1.22-11.67-2.85-17.29c-2.02-6.98-6.68-17.97-0.9-24.46
			c6.62-7.43,18.02-4.2,23.82,2.16c3.49,3.82,6.05,8.42,9.5,12.3C64.34,78.09,66.97,80.05,69.56,79.18z"/>
		<path id="necklace" class="st3" d="M70.35,103.19c3.39,5.43,8.8,8.22,13.87,7.11c0.86-0.19,1.73-0.49,2.42-1.23
			c1.11-1.16,1.57-3.22,1.68-5.16c0.28-4.7-1.09-9.35-2.94-13.31c-3.3-7.08-11.59-19.92-17.36-10.39
			C64.22,86.48,66.97,97.77,70.35,103.19z"/>
		<path class="st2" d="M98.34,71.31c0.06-0.59,0.49-1.05,0.92-1.46c4.33-4.23,9.75-7.32,15.6-8.89c2.05,4,2.54,8.7,1.74,13.12
			c-0.79,4.42-2.81,8.57-5.49,12.17L98.34,71.31z"/>
		<path class="st1" d="M80.77,108.35c-1.94-0.75-3.92-1.54-5.43-2.96c-1.57-1.46-2.48-3.48-3.32-5.46c-1.43-3.39-2.77-6.92-2.9-10.6
			c-0.3-8.61,6.2-16.24,13.84-20.21c5.66-2.94,12.34-4.36,18.48-2.69c7.99,2.18,13.77,9.09,18.01,16.22
			c3.1,5.21,5.72,11.59,3.34,17.16c-1.18,2.75-3.44,4.91-5.88,6.65c-4.25,3.04-9.24,5.08-14.4,5.93c-3.59,0.59-7.21-0.49-10.7-1.2
			C87.97,110.43,84.46,109.78,80.77,108.35z"/>
		<path class="st4" d="M111.59,78.4c-0.73,0.19-0.83,1.25-0.48,1.81c0.3,0.48,0.92,0.55,1.35,0.21c0.31-0.25,0.58-0.59,0.68-0.97
			c0.24-0.94-0.71-1.85-1.62-1.41c-0.85,0.4-1.01,1.55-0.75,2.35c0.12,0.39,0.46,0.64,0.88,0.65c0.6,0.02,1.23-0.4,1.35-1.01
			c0.09-0.44-0.1-0.88-0.53-1.05c-0.4-0.16-0.89-0.01-1.11,0.37c-0.06,0.11,0,0.01,0.05-0.03c0.05-0.04,0.14-0.08,0.22-0.08
			c0.29,0.22,0.58,0.43,0.88,0.65c-0.03-0.08-0.07-0.19-0.08-0.28c0.01,0.1,0.01-0.01,0.01-0.05c0.01-0.26-0.04,0.11,0.02-0.14
			c0.03-0.14,0.04-0.03-0.02,0c-0.1,0.05-0.74,0.08-0.82-0.04c-0.02-0.07-0.04-0.13-0.05-0.21c0-0.03,0-0.05,0.02-0.07
			c-0.02-0.02-0.06,0.09-0.02,0.04c-0.01,0.02-0.16,0.16-0.09,0.12c0.12-0.03,0.25-0.07,0.37-0.1c-0.02,0-0.04,0-0.06,0
			c0.12,0.03,0.25,0.06,0.37,0.09c0.08,0.04,0.02,0.06,0-0.04c-0.01-0.05-0.03-0.11-0.04-0.16c-0.03-0.13-0.04-0.28-0.08-0.41
			C111.96,78.46,111.77,78.36,111.59,78.4L111.59,78.4z"/>
		<path class="st4" d="M95,77.24c-0.37,0.16-0.46,0.67-0.49,1.03c-0.03,0.46,0.09,0.94,0.56,1.14c0.82,0.37,1.64-0.45,1.88-1.18
			c0.27-0.83-0.12-2.16-1.18-2.15c-1.25,0.01-1.43,1.57-1.25,2.49c0.15,0.78,1.2,0.93,1.71,0.43c0.41-0.4,0.43-1.04,0.09-1.49
			c-0.31-0.41-0.98-0.6-1.42-0.26c-0.28,0.21-0.46,0.46-0.46,0.82c0,0.31,0.19,0.68,0.47,0.81c0.01,0.01,0.03,0.01,0.04,0.02
			c-0.11-0.11-0.24-0.23-0.35-0.35c0.05,0.08,0.04,0.05-0.03-0.08c0-0.19,0-0.36-0.01-0.55c0,0.02-0.01,0.04-0.01,0.05
			c0.08-0.15,0.18-0.3,0.26-0.45c-0.01,0.01-0.02,0.03-0.04,0.04c0.57,0.14,1.13,0.29,1.71,0.43c-0.02-0.07-0.04-0.14-0.05-0.22
			c0.01,0.13,0.01-0.07,0.01-0.11c0-0.05,0.04-0.02,0.02-0.06c0.02-0.06,0.02-0.07,0-0.02c-0.02,0.04-0.05,0.08-0.07,0.12
			c-0.14,0.08-0.28,0.16-0.42,0.25c0.03,0,0.06-0.01,0.08-0.01c-0.16,0-0.34,0-0.51,0c-0.27-0.26-0.35-0.31-0.24-0.14
			c-0.03-0.09-0.04-0.08,0,0.02c0.06-0.23-0.04,0.26,0,0.04c-0.03,0.09-0.03,0.11,0,0.04c-0.02,0.05-0.05,0.1-0.08,0.14
			c0.03-0.05,0.02-0.04-0.04,0.03c0.08-0.04,0.18-0.05,0.28-0.04c0.1,0.06,0.21,0.11,0.31,0.18c-0.16-0.15-0.08-0.66-0.25-0.88
			C95.37,77.2,95.19,77.16,95,77.24L95,77.24z"/>
		<path class="st4" d="M103.82,85.83c0.28-0.66-0.25-1.33-0.94-1.38c-0.96-0.07-1.96,1.29-1.51,2.15c0.95,1.79,3.83,0.48,3.3-1.43
			c-0.27-0.94-1.22-1.56-2.16-1.53c-1.01,0.03-1.83,0.85-2.09,1.78c-0.6,2.19,2.07,4.39,3.9,2.65c0.93-0.89,0.93-2.47-0.22-3.19
			c-1.05-0.65-2.42-0.29-2.8,0.93c-0.15,0.48,0.11,1.05,0.55,1.3c0.47,0.27,1,0.13,1.39-0.2c-0.46,0.38-0.97-0.4-0.49-0.67
			c0.13-0.07,0.13,0.16,0.02-0.05c-0.04-0.07-0.07-0.1-0.04-0.19c0.01-0.04,0.05-0.21,0.08-0.18c0,0-0.1,0.07-0.15,0.04
			c-0.16-0.1,0.08-0.44,0.14-0.51c-0.19,0.16-0.04-0.03,0.02,0.02c0.11,0.08,0.15,0,0.28,0.19c0.03,0.26,0.07,0.51,0.1,0.76
			c0.02-0.11,0.12-0.36,0.1-0.46c0.01-0.03,0.03-0.05,0.06-0.07c-0.07,0.04-0.14,0.02-0.21-0.06
			C103.24,86.01,103.69,86.13,103.82,85.83L103.82,85.83z"/>
		<path class="st4" d="M97.35,91.1c0.42,0.71,0.84,1.18,1.67,1.39c0.75,0.2,1.6,0.07,2.29-0.29c1.59-0.81,2.46-2.91,2.09-4.64
			c-0.16-0.78-1.31-0.55-1.34,0.2c-0.04,1.22-0.1,2.42-1.18,3.23c-0.84,0.63-2.45,0.66-3.22-0.14C97.52,90.66,97.24,90.9,97.35,91.1
			L97.35,91.1z"/>
		<path class="st4" d="M106.21,92.62c-1.09-0.02-1.8-0.39-2.12-1.51s-0.12-2.14,0.05-3.26c0.16-1.05-1.28-1.46-1.62-0.43
			c-0.53,1.61-0.36,3.74,0.67,5.12c0.66,0.88,2.57,1.79,3.21,0.37C106.46,92.8,106.39,92.62,106.21,92.62L106.21,92.62z"/>
		<path class="st4" d="M85.52,86.19c-1.18,0.69-2.94,0.71-4.28,0.79c-1.58,0.09-3.13,0.06-4.7-0.1c-1.54-0.18-1.21-2.63,0.32-2.38
			c1.45,0.24,2.93,0.44,4.39,0.55c1.32,0.09,2.9-0.14,4.15,0.24C85.78,85.38,85.85,85.99,85.52,86.19L85.52,86.19z"/>
		<path class="st4" d="M85.55,90.48c-0.75,0.79-2,1.08-3,1.48c-1.2,0.48-2.39,0.98-3.6,1.44c-1.39,0.54-2.23-1.73-0.85-2.1
			c1.21-0.33,2.42-0.63,3.63-0.93c1.06-0.27,2.4-0.86,3.49-0.65C85.56,89.77,85.82,90.2,85.55,90.48L85.55,90.48z"/>
		<path class="st4" d="M118.35,88.66c0.27-0.39,0.8-0.31,1.22-0.39c0.86-0.16,1.71-0.48,2.56-0.71c1.67-0.44,3.41-0.97,5.13-1.16
			c1.29-0.14,1.93,1.91,0.59,2.28c-1.69,0.47-3.46,0.67-5.21,0.89c-1.18,0.14-3.12,0.7-4.14-0.16c-0.14-0.12-0.26-0.33-0.22-0.53
			C118.29,88.8,118.3,88.73,118.35,88.66L118.35,88.66z"/>
		<path class="st4" d="M118.66,92.67c1.05,0.05,2.13,0.71,3.13,1.04c1.14,0.37,2.31,0.61,3.49,0.76c1.48,0.2,1.08,2.6-0.3,2.25
			c-1.28-0.32-2.54-0.72-3.74-1.27c-1.01-0.45-2.43-1.03-3.06-1.99C117.95,93.08,118.22,92.65,118.66,92.67L118.66,92.67z"/>
	</g>
</g>
<g id="ball_1_">
	<path class="st3" d="M152.07,110.74c-0.01,0.11-0.02,0.21-0.03,0.32c-0.26,2.16-1.27,4.12-2.62,5.85c-0.79,1-1.7,1.92-2.65,2.75
		c-0.51,0.45-1.05,0.88-1.62,1.24c-0.38,0.25-0.78,0.47-1.2,0.64c-0.74,0.31-1.53,0.47-2.33,0.53l0,0
		c-0.36,0.03-0.72,0.03-1.08,0.02c-0.7-0.02-1.4-0.11-2.08-0.24c-0.34-0.06-0.68-0.14-1.02-0.23c-0.15-0.04-0.29-0.08-0.44-0.12
		c-2.85-0.8-5.51-2.36-7.34-4.68c-2.28-2.89-2.56-6.62-1.45-9.97c0.09-0.27,0.19-0.54,0.29-0.81c0.56-1.4,1.37-2.71,2.37-3.84
		c0.15-0.18,0.31-0.35,0.48-0.51c1.44-1.46,3.22-2.56,5.24-3.07c0.12-0.03,0.24-0.06,0.36-0.08c0.46-0.1,0.92-0.16,1.39-0.19
		c4.24-0.28,8.86,2.02,11.52,5.48c0.5,0.65,0.93,1.34,1.28,2.07c0.32,0.67,0.57,1.37,0.74,2.09
		C152.08,108.89,152.15,109.81,152.07,110.74z"/>
	<path class="st5" d="M139.07,114.97c-0.07-0.02-0.13-0.05-0.2-0.08c-1.09-0.58-2.08-1.42-3.09-2.15c-0.92-0.66-1.83-1.32-2.75-1.99
		c-0.94-0.68-1.88-1.39-2.79-2.11c-0.66-0.52-1.51-1.07-2.04-1.77c0.09-0.27,0.19-0.54,0.29-0.81c0.93,0.18,1.82,0.82,2.63,1.27
		c1.03,0.59,2.05,1.21,3.05,1.84c1.98,1.25,4.19,2.38,5.99,3.88c0.02,0.02,0.05,0.04,0.07,0.06
		C141.2,113.92,140.1,115.28,139.07,114.97z"/>
	<path class="st5" d="M141.05,111.74c-0.07-0.03-0.14-0.08-0.21-0.14c-1.76-1.55-3.37-3.28-5.1-4.85c-0.87-0.79-1.75-1.56-2.62-2.35
		c-0.77-0.7-1.62-1.35-2.25-2.18c0.15-0.18,0.31-0.35,0.48-0.51c0.98,0.43,1.83,1.16,2.69,1.79c0.89,0.66,1.76,1.38,2.61,2.09
		c1.84,1.52,3.77,3.05,5.4,4.8c0.01,0.01,0.01,0.01,0.02,0.02C142.75,111.15,141.84,112.14,141.05,111.74z"/>
	<path class="st5" d="M144.46,108.63c-0.13-0.16-0.26-0.32-0.39-0.47c-1.27-1.57-2.5-3.19-3.71-4.8c-0.7-0.93-1.38-1.87-2.05-2.82
		c-0.45-0.64-0.95-1.29-1.36-1.98c0.46-0.1,0.92-0.16,1.39-0.19c0.41,0.48,0.8,0.98,1.2,1.45c0.67,0.8,1.35,1.59,2.01,2.39
		c1.29,1.56,2.61,3.09,3.9,4.64c0.12,0.14,0.24,0.29,0.36,0.43C146.58,108.22,145.24,109.57,144.46,108.63z"/>
	<path class="st5" d="M151.14,105.91c-1.38,0.84-2.8,1.6-4.08,2.62c-1.38,1.11-2.69,2.31-3.86,3.64c-1.2,1.38-2.28,2.88-3.21,4.46
		c-0.46,0.78-0.88,1.58-1.25,2.41c-0.36,0.79-0.62,1.73-1.12,2.44c-0.05,0.07-0.12,0.12-0.18,0.15c-0.16,0.06-0.34,0.02-0.44-0.12
		c-0.04-0.06-0.07-0.13-0.08-0.22c-0.05-0.94,0.37-2.01,0.67-2.89c0.31-0.87,0.66-1.73,1.04-2.56c0.14-0.3,0.28-0.59,0.43-0.88
		c0.34-0.66,0.7-1.3,1.1-1.92c0.28-0.44,0.57-0.88,0.88-1.31c0.21-0.3,0.43-0.59,0.66-0.88c0.12-0.16,0.24-0.31,0.37-0.47
		c0.61-0.76,1.28-1.52,2-2.24c0.44-0.45,0.9-0.89,1.38-1.31c1.36-1.2,2.84-2.25,4.41-3C150.36,104.5,150.79,105.19,151.14,105.91z"
		/>
	<path class="st5" d="M152.07,110.74c-0.65,0.59-1.33,1.15-1.94,1.75c-1.08,1.06-2.14,2.14-3.16,3.25s-1.99,2.26-2.95,3.42
		c-0.77,0.92-1.5,2.1-2.41,2.92l0,0c-0.36,0.03-0.72,0.03-1.08,0.02c0-0.02,0-0.04,0.01-0.07c0.31-1.41,1.49-2.83,2.3-3.99
		c0.87-1.25,1.83-2.45,2.8-3.63c1.04-1.25,2.11-2.46,3.25-3.62c0.93-0.94,1.88-2.01,2.97-2.79
		C152.08,108.89,152.15,109.81,152.07,110.74z"/>
</g>
</svg>
