<?xml version="1.0" encoding="utf-8"?>
<!-- Generator: Adobe Illustrator 23.0.1, SVG Export Plug-In . SVG Version: 6.00 Build 0)  -->
<svg version="1.1" id="Layer_1" xmlns="http://www.w3.org/2000/svg" xmlns:xlink="http://www.w3.org/1999/xlink" x="0px" y="0px"
	 viewBox="0 0 171.6 171.6" style="enable-background:new 0 0 171.6 171.6;" xml:space="preserve">
<style type="text/css">
	.st0{fill:#006C84;}
	.st1{fill:#CACAC9;}
	.st2{fill:#FBAE42;}
	.st3{fill:#969595;}
	.st4{fill:#4D4E4E;}
</style>
<g id="circle">
	<circle class="st0" cx="85.8" cy="85.8" r="85.8"/>
</g>
<g id="cat">
	<g id="cat_x5F_parts">
		<path class="st1" d="M105.7,102c7.7,1.7,14.9,5.6,20.5,11c1.8,1.7,3.5,4.3,2.2,6.4c-0.8,1.2-2.4,1.6-3.8,1.4
			c-1.4-0.2-2.7-0.9-4-1.5c-8.3-4.2-17.5-6.8-26.8-7.5L105.7,102z"/>
		<path class="st1" d="M27.1,114.8c-0.1-7.7,3.6-13.5,12.1-16.7c5.4-2,11.3-1.5,17.1-1.2c14.4,0.8,29.8-0.2,41.5-8.4l11.2,7.9
			c0.7,4.1,0.3,8.6-1.7,12.3c-1.2,2.3-2.5,4.8-1.9,7.3c0.8,3.3,4.3,5,6.8,6.9c2,1.6,3.8,3.7,4.1,6.3c0.2,2.6-1.6,5.4-4.2,5.4
			c-1.9,0-3.5-1.3-5-2.6c-9.4-7.9-21.4-12-33.8-10.5c-3.2,0.4-6.3,1.5-9.5,1.8c-2.5,0.3-4.9-0.1-6.8,1.8c0,0-0.1,0.1-0.1,0.1
			c-1.4,1.5-1.8,3.6-3.3,5.1c0,0-0.1,0.1-0.1,0.1c-2,1.9-4.9,2.8-7.7,2.9c-3.6,0.1-7.1-1-10.5-2.1C35.5,131.4,27.3,129.8,27.1,114.8
			z"/>
		<path id="neckale_2_" class="st2" d="M115.9,98.2c-0.2-1.7-1.3-3.5-3.7-5.4c-4.9-3.9-11-5.5-16.2-8c-2.9-1.4-5.9-2.7-8.9-2.4
			c-0.5,0.1-1.1,0.2-1.4,0.7c-0.3,0.5-0.3,1.2-0.3,1.9c0.4,4,3,7.4,5.6,10.2c3.9,4.2,8.3,8.1,13.3,9.3
			C109.8,105.8,116.4,102.8,115.9,98.2z"/>
		<path class="st3" d="M88.8,55.1c-4.6-4.1-10.9-6.2-17-5.8c-0.5,0-1.1,0.1-1.4,0.5c-0.5,0.6-0.3,1.4-0.1,2.1
			c2.5,7.4,5.3,15.2,11.4,20L88.8,55.1z"/>
		<path class="st3" d="M111,51.6c0.3-5,0.6-10,0.9-15c0-0.7,0.2-1.5,0.9-1.6c0.3,0,0.6,0.1,0.8,0.3c4.4,2.7,7.6,7.3,9.5,12.1
			s2.8,10,3.6,15.2L111,51.6z"/>
		<path class="st1" d="M123.3,94.8c6-4.1,10.5-10,14.2-16.2c1.4-2.4,2.8-4.9,3.1-7.7c1-9.1-8.7-18.5-15.9-22.2
			c-6.3-3.3-13.6-4.6-20.8-4.4c-4.7,0.2-9.4,1-13.7,2.8c-8.6,3.7-15.1,11.5-17.8,20.4c-1.3,4.4-1.8,9.2-0.5,13.6
			c2.8,9.5,13.5,15.6,22.7,17.3C104.2,100.2,114.9,100.4,123.3,94.8z"/>
		<path class="st4" d="M108.5,70.7c1.2,0.4,2.4,0.3,3.4-0.4c1.1-0.7,1.7-1.9,1.8-3.2c0.1-0.7,0-1.4-0.1-2.1c-0.1-0.3-0.2-0.7-0.3-1
			c-0.1-0.3-0.2-0.6-0.3-0.9c-0.1-0.7,0.6-1.4,1.2-1c0.6,0.4,0.4,1.5-0.4,1.4c-0.8-0.1-0.8-1.4,0.1-1.3c0,0,0,0,0.1,0
			c-0.2,0.1-0.4,0.2-0.6,0.3c0.6,0,0.9,0.1,1,0.5c0,0.1,0.1,0.2,0.1,0.2c0.1,0.2,0.1,0.3,0.2,0.5c0.1,0.3,0.2,0.6,0.2,0.9
			c0.1,0.6,0.2,1.3,0.2,2c0,1.2-0.3,2.5-1.1,3.5c-1.2,1.5-4.1,2.6-5.5,0.9C108.3,70.8,108.4,70.6,108.5,70.7L108.5,70.7z"/>
		<path class="st4" d="M121.8,66.8c0.2,2.2-2.5,3.3-4.3,2.6c-2.5-0.9-4-4.1-3.9-6.7c0-0.8,1.3-0.9,1.4-0.1c0.1,1.2,0.2,2.3,0.8,3.4
			c0.4,0.8,1,1.6,1.8,2.1c1.4,0.9,3.7,0.4,4.1-1.4C121.6,66.8,121.8,66.8,121.8,66.8L121.8,66.8z"/>
		<path class="st4" d="M94.4,62.9c0.4,0.1,0.8,0.3,1.1,0.6c0.3,0.3,0.5,0.7,0.6,1.1c0.3,0.8,0.3,1.8-0.1,2.5
			c-0.1,0.3-0.5,0.5-0.8,0.3c-1.2-1-1.7-2.4-1.7-3.9C93.6,63,94.1,62.7,94.4,62.9c2,0.7,2.5,3.3,1.1,4.8c-0.3,0.3-0.8,0.2-1.1-0.1
			c-0.7-0.6-1.2-1.4-1.3-2.3c-0.1-0.5,0.3-0.9,0.8-0.9c1-0.1,1.9,0.8,1.9,1.8c0,0.9-1.3,0.9-1.5,0.1c-0.1-0.3-0.2-0.4-0.5-0.4
			c0.3-0.3,0.5-0.6,0.8-0.9c0.1,0.7,0.5,1.2,1,1.7c-0.3,0-0.7,0-1.1-0.1c0.6-0.7,0.3-2.1-0.5-2.5c0.3-0.2,0.6-0.4,0.9-0.6
			c-0.2,1.1,0.2,2.2,1,3c-0.3,0-0.6,0-0.8,0.1c0.8-1.1,0.2-2.7-0.8-3.5C94.1,63.1,94.2,62.8,94.4,62.9L94.4,62.9z"/>
		<path class="st4" d="M126.7,58.1c-0.7-0.5,0.3-1.3,0.9-0.8c0.4,0.3,0.5,0.9,0.6,1.4c0.1,0.6,0.1,1.2-0.1,1.8
			c-0.1,0.3-0.4,0.4-0.7,0.3c-1.5-0.5-2.4-2.4-1.8-3.9c0.1-0.3,0.5-0.5,0.8-0.4c0.7,0.2,1.2,0.7,1.4,1.4c0.2,0.7,0.1,1.6-0.7,1.9
			c-0.7,0.2-1.7-0.1-1.8-1c0-0.8,0.8-1.4,1.6-1.2c0.7,0.2,0.5,1.4-0.3,1.3c0,0-0.1-0.5,0-0.5c0,0,0.2-0.1,0.2-0.1
			c-0.1,0.1-0.2,0.3-0.3,0.4c0.2-0.5,0-1-0.5-1.1c0.3-0.1,0.5-0.3,0.8-0.4c-0.4,0.9,0,2,0.9,2.4c-0.2,0.1-0.5,0.2-0.7,0.3
			c0.2-0.7,0.3-1.9-0.3-2.5c0.1,0,0.2,0.1,0.2,0.1c0,0,0-0.1,0-0.1C127.2,58,127,58.3,126.7,58.1L126.7,58.1z"/>
		<path class="st3" d="M51.2,114.8c-1-1.2-2.2-2.3-3.5-3.3c-0.1-0.1,0-0.3,0.1-0.2c2.6,1.7,4.8,3.9,6.4,6.5c0.8,1.3,1.5,2.7,2.1,4.1
			c0.4,1.2,0.8,2.4,0.8,3.6c-0.6,0.7-1.1,1.5-1.5,2.4c0,0-0.1-0.1-0.1-0.1c0.7-1.7,0.3-3.9-0.2-5.6
			C54.4,119.4,53.1,116.9,51.2,114.8z"/>
		<path class="st4" d="M98.8,72.5c-0.4,0.7-1.4,0.8-2.1,1.1c-1.1,0.4-2.1,0.7-3.2,1.1c-2.1,0.7-4.2,1.4-6.3,2
			c-1.4,0.4-2-1.8-0.6-2.2c2.1-0.7,4.2-1.2,6.4-1.7c1.1-0.2,2.1-0.4,3.2-0.6c0.8-0.1,1.9-0.5,2.6,0C98.8,72.2,98.9,72.4,98.8,72.5
			L98.8,72.5z"/>
		<path class="st4" d="M100.4,75.9c-0.5,0.8-1.4,1.4-2.1,2.1c-0.8,0.7-1.6,1.3-2.4,1.9c-1.7,1.3-3.5,2.4-5.4,3.5
			c-1.1,0.6-2.1-1.1-1-1.7c1.8-1.1,3.6-2.2,5.4-3.3c0.9-0.5,1.7-1.1,2.6-1.6c0.8-0.5,1.7-1.2,2.6-1.4
			C100.3,75.3,100.6,75.7,100.4,75.9L100.4,75.9z"/>
		<path class="st4" d="M131.1,63.2c0.5-0.7,1.5-1.1,2.2-1.4c0.9-0.5,1.9-0.9,2.8-1.4c0.9-0.4,1.8-0.8,2.7-1.3c0.9-0.5,1.8-1,2.8-1.2
			c1.3-0.4,1.9,1.4,0.9,2.1c-0.8,0.6-1.9,0.9-2.8,1.3c-1,0.4-1.9,0.8-2.9,1.1c-0.9,0.3-1.9,0.6-2.8,0.9c-0.9,0.2-1.9,0.6-2.8,0.4
			C130.9,63.7,130.9,63.4,131.1,63.2L131.1,63.2z"/>
		<path class="st4" d="M134.2,67.3c0.6-0.3,1.2-0.3,1.9-0.3c0.8,0,1.6-0.1,2.4-0.1c1.6-0.1,3.2-0.3,4.8-0.7s2.2,2.2,0.7,2.4
			c-1.8,0.3-3.5,0.4-5.3,0.3c-0.8-0.1-1.7-0.2-2.5-0.3c-0.7-0.2-1.6-0.3-2.1-0.8C134,67.7,134.1,67.4,134.2,67.3L134.2,67.3z"/>
		<path class="st4" d="M115.3,60.3c-1.6-0.7-5.8-0.3-5.1,2.3c0.3,1.1,1.5,1.7,2.6,1.6c1.3-0.1,2.5-1,3.3-1.9
			c0.4-0.5,0.3-1.2-0.1-1.6c-1.5-1.5-4.2-1.1-5.1,0.8c-0.6,1.1,1.1,2.2,1.9,1.2c0.4-0.6,1.2-0.8,1.8-0.3c0-0.5-0.1-1.1-0.1-1.6
			c-0.4,0.5-0.8,0.9-1.4,1.2c-0.2,0.1-1.1,0.5-1.1,0.1c0-0.2,1.2-0.6,1.4-0.7c0.6-0.2,1.2-0.2,1.8-0.2
			C115.6,61.3,115.7,60.5,115.3,60.3L115.3,60.3z"/>
		<path class="st3" d="M51.1,127.2c4-0.9,8-2.5,10.6-5.6c1.4-1.7,2.3-3.8,3.8-5.4c2.4-2.8,6.1-4.3,9.8-4.9c3.7-0.7,7.7-0.5,10.8,1.4
			c3.4,2.1,5.4,6.4,4.8,10.4c-0.6,3.8-3.2,7-6.4,9.1c-3.2,2.1-7,3.1-10.7,3.8c-6.1,1.1-12.3,1.6-18.5,1.6c-6,0-12.3-0.6-17.7-3.3
			c-3.1-1.5-6.3-3.1-9-5.2c-1.3-1-2.8-2.3-3.5-3.8c-0.8-1.8-0.5-4,0.1-5.8c0.5-1.5,1.5-3.8,2.8-4.8c1-0.8,0.6,0.4,0.6,1.3
			c-0.1,2.1-0.4,4.5,1.1,6.2c0.7,0.9,1.5,1.7,2.4,2.4c1.8,1.5,4,2.5,6.3,3C42.6,128.4,47,128.1,51.1,127.2z"/>
	</g>
</g>
</svg>
