<?xml version="1.0" encoding="utf-8"?>
<!-- Generator: Adobe Illustrator 23.0.1, SVG Export Plug-In . SVG Version: 6.00 Build 0)  -->
<svg version="1.1" id="Layer_1" xmlns="http://www.w3.org/2000/svg" xmlns:xlink="http://www.w3.org/1999/xlink" x="0px" y="0px"
	 viewBox="0 0 171.6 171.6" style="enable-background:new 0 0 171.6 171.6;" xml:space="preserve">
<style type="text/css">
	.st0{fill:#B23028;}
	.st1{fill:#CBCBCA;}
	.st2{fill:#979797;}
	.st3{fill:#4D4E4E;}
</style>
<g id="circle">
	<circle class="st0" cx="85.8" cy="85.8" r="85.8"/>
</g>
<g id="cat">
	<g id="cat_x5F_parts">
		<path class="st1" d="M112,92c7.6,1.7,14.7,5.5,20.3,10.9c1.8,1.7,3.4,4.3,2.1,6.3c-0.8,1.2-2.4,1.6-3.8,1.4s-2.7-0.9-3.9-1.5
			c-8.2-4.2-17.3-6.7-26.5-7.4L112,92z"/>
		<g>
			<g>
				<path class="st1" d="M101.4,90.9c7.3,1.6,14.1,5.3,19.5,10.4c1.7,1.6,3.3,4.1,2.1,6.1c-0.7,1.1-2.3,1.5-3.6,1.4
					s-2.6-0.8-3.8-1.5c-7.9-4-16.6-6.4-25.4-7.1L101.4,90.9z"/>
				<path class="st1" d="M27,103.1c-0.1-7.3,3.4-12.8,11.5-15.8c5.1-1.9,10.8-1.4,16.2-1.1c13.6,0.7,28.2-0.1,39.4-8l10.6,7.5
					c0.7,3.9,0.3,8.2-1.6,11.7c-1.2,2.2-2.4,4.6-1.8,7c0.8,3.2,4.1,4.8,6.5,6.6c1.9,1.5,3.6,3.5,3.9,5.9c0.2,2.4-1.5,5.1-3.9,5.2
					c-1.8,0-3.3-1.2-4.7-2.4c-8.9-7.5-20.3-11.4-32-10c-3,0.4-5.9,1.4-9,1.7c-2.4,0.2-4.7-0.1-6.5,1.7c0,0-0.1,0.1-0.1,0.1
					c-1.3,1.4-1.7,3.4-3.1,4.8c0,0-0.1,0.1-0.1,0.1c-1.9,1.8-4.6,2.7-7.2,2.8c-3.4,0.1-6.7-0.9-10-2C34.9,118.8,27.1,117.3,27,103.1
					z"/>
				<path class="st2" d="M49.8,103.1c-1-1.2-2.1-2.2-3.3-3.2c-0.1-0.1,0-0.3,0.1-0.2c2.5,1.6,4.5,3.7,6.1,6.1c0.8,1.2,1.5,2.5,2,3.9
					c0.4,1.1,0.7,2.3,0.8,3.4c-0.6,0.7-1,1.4-1.5,2.3c0,0-0.1-0.1-0.1-0.1c0.7-1.6,0.3-3.7-0.2-5.3
					C52.8,107.4,51.5,105.1,49.8,103.1z"/>
			</g>
		</g>
		<path class="st2" d="M49.7,114.8c3.8-0.8,7.6-2.4,10-5.3c1.3-1.6,2.2-3.6,3.6-5.2c2.3-2.7,5.8-4,9.2-4.7c3.5-0.6,7.3-0.5,10.3,1.3
			c3.3,2,5.1,6,4.6,9.8c-0.5,3.6-3,6.7-6.1,8.6c-3.1,1.9-6.6,2.9-10.2,3.6c-5.8,1.1-11.6,1.5-17.5,1.5c-5.7,0-11.6-0.6-16.8-3.1
			c-2.9-1.5-5.9-2.9-8.5-4.9c-1.2-0.9-2.7-2.1-3.3-3.6c-0.7-1.7-0.4-3.8,0.1-5.5c0.5-1.4,1.4-3.6,2.6-4.6c1-0.8,0.6,0.4,0.5,1.2
			c-0.1,2-0.4,4.3,1,5.9c0.7,0.8,1.5,1.6,2.3,2.3c1.7,1.4,3.8,2.4,6,2.9C41.6,115.9,45.8,115.7,49.7,114.8z"/>
		<path class="st2" d="M90.6,71.7c2.8-1.4,5.7-2.8,8.5-4.2c0.7-0.3,1.4-0.7,1.8-1.3c2-3-4.4-7-6.4-8.3c-3.7-2.3-8.1-3.6-12.4-3.2
			c-0.8,0.1,0.1,9.1,0.3,10c0.6,3.2,1.5,6.3,3.1,9.2c1.2,2.3,2.7,0.3,3.9-0.8c1.6-1.4,3.3-2.7,5.2-3.7L90.6,71.7z"/>
		<path class="st2" d="M123.1,63.8c-0.2-0.5,0-1.1,0.2-1.7c2.2-5.4,5.9-10.3,10.4-13.9c3.4,2.8,5.6,6.8,6.6,11s0.8,8.7-0.2,12.9
			L123.1,63.8z"/>
		<path class="st1" d="M95.9,102.9c-3.2-2.3-6.1-5.1-8.2-8.3c-5.8-8.5-5.6-20.8,1.9-28.2c5.3-5.3,12.6-8.4,20-9.7
			c6.3-1,12.8-0.8,18.8,1.4c11,4.1,19.1,15.5,18.2,27.2c-0.6,8.4-5.7,14.3-12.1,19.1C123.2,112.7,107,110.8,95.9,102.9z"/>
		<path class="st3" d="M127.7,82.6c0.3,0.7,0.8,1.3,1.3,1.9c0.5,0.6,1.1,1.2,1.8,1.6c1.2,0.9,2.7,1.4,4.2,1.5
			c2.7,0.1,5.5-1.7,6.1-4.4c0.2-0.9-1.2-1.2-1.4-0.3c-0.5,2.2-2.8,3.4-4.9,3.4c-1.3,0-2.6-0.5-3.6-1.2c-0.6-0.3-1.1-0.8-1.5-1.2
			c-0.5-0.5-0.9-1-1.4-1.5C128,82.1,127.6,82.3,127.7,82.6L127.7,82.6z"/>
		<path class="st3" d="M108.3,83.4c0,2.5-1.8,4.9-4.3,5.6c-2.5,0.6-5.2-0.9-6.2-3.2c-0.3-0.7-1.5-0.1-1.2,0.6
			c0.9,2.3,3.2,3.9,5.7,4.1c2.4,0.2,4.7-1.2,5.9-3.3c0.6-1.2,0.9-2.5,0.8-3.8C109,83,108.3,83,108.3,83.4L108.3,83.4z"/>
		<path class="st3" d="M121.3,91.3c-0.8-0.1-1.3,0.8-1.1,1.5c0.1,0.5,0.7,0.6,1.2,0.5c0.4,0,0.9-0.2,1.2-0.5
			c0.4-0.3,0.8-0.8,0.5-1.3c-0.2-0.3-0.6-0.6-1-0.6s-0.8,0-1.2,0.3c-0.4,0.3-0.7,0.8-0.5,1.3c0.2,0.5,1,0.7,1.5,0.6
			c0.6-0.1,1.1-0.4,1.4-0.9c0.2-0.3,0-0.7-0.3-0.9c-0.8-0.5-2.5-0.6-2.7,0.6c-0.1,0.6,0.3,1.1,0.9,1.1c0.7-0.1,0.9-0.7,0.7-1.2
			c-0.2-0.3-0.6-0.4-0.9-0.3c-0.3,0.2-0.5,0.5-0.4,0.8c0,0,0,0,0,0.1c0-0.1,0-0.2,0-0.4c0,0,0,0,0,0c0.1-0.1,0.1-0.2,0.2-0.3
			c0.2,0,0.5,0,0.7,0c0.1,0.1,0.1,0.2,0.2,0.3c0,0,0,0,0,0c0,0.1-0.1,0.2-0.1,0.4c-0.1,0.1-0.1,0,0,0c0.1,0,0.2,0,0.2,0
			c0.2,0,0.3,0.1,0.5,0.2c-0.1-0.3-0.2-0.6-0.3-0.9c-0.1,0.2-0.4,0.2-0.6,0.1c0.1,0.2,0.1,0.3,0.2,0.4c0,0.1,0,0.1,0,0
			c-0.1,0.1,0.1,0,0,0c0,0,0.2-0.1,0.1,0c0.1,0,0.1,0,0.2,0c0,0,0.1,0.1,0,0c0-0.2,0-0.3,0-0.4c-0.2,0.5-0.8,0.7-1.3,0.6
			c0.1,0.1,0.2,0.1,0.3,0.2c-0.2-0.3,0.1-0.6,0.3-0.8C121.5,91.6,121.5,91.3,121.3,91.3L121.3,91.3z"/>
		<path class="st3" d="M119.2,99.3c1.4,0.9,2.7-0.9,3.2-2.1c0.6-1.6,0.4-3.9-0.4-5.4c-0.3-0.6-1.3-0.3-1.1,0.4
			c0.4,1.3,0.7,2.4,0.6,3.8c-0.1,0.7-0.3,1.4-0.7,1.9c-0.4,0.5-1.1,0.5-1.6,1C119,98.9,119.1,99.2,119.2,99.3L119.2,99.3z"/>
		<path class="st3" d="M126.1,97.6c-0.9-0.6-1.8-0.8-2.4-1.8c-0.7-1.1-0.9-2.3-1.3-3.4c-0.3-0.9-1.5-0.3-1.3,0.5
			c0.3,1.9,2.7,7.3,5.1,5.2C126.3,97.9,126.3,97.7,126.1,97.6L126.1,97.6z"/>
		<path class="st3" d="M141.4,91.6c1.4-0.1,2.9,0.1,4.4,0.1c0.7,0,1.4-0.1,2.1-0.1c0.7-0.1,1.5-0.3,2.2-0.2c0.7,0.1,0.9,1.1,0.2,1.4
			c-0.7,0.3-1.5,0.2-2.2,0.2c-0.8,0-1.5,0-2.2,0c-1.5,0-3.1-0.1-4.5-0.5C140.9,92.4,140.9,91.6,141.4,91.6L141.4,91.6z"/>
		<path class="st3" d="M140.1,95.2c0.6,0.1,1.2,0.4,1.8,0.7c0.7,0.3,1.3,0.7,2,1.1c1.3,0.8,2.6,1.6,3.8,2.5c0.6,0.4,0,1.4-0.6,1
			c-1.2-0.8-2.4-1.7-3.6-2.6c-0.6-0.4-1.2-0.8-1.8-1.2c-0.6-0.4-1.3-0.7-1.7-1.3C139.9,95.4,139.9,95.2,140.1,95.2L140.1,95.2z"/>
		<path class="st3" d="M100.2,96.1C100.2,96.1,100.2,96.1,100.2,96.1c0,0.1,0,0.2,0,0.3c0,0,0,0,0,0c0.1,0.1,0.2,0.1,0.3,0.2
			c-0.3,0-0.8,0.2-1.1,0.3c-0.5,0.1-0.9,0.3-1.4,0.4c-0.9,0.3-1.8,0.6-2.7,0.9c-1.8,0.7-3.5,1.4-5.2,2.2c-1,0.4-1.8-1.1-0.8-1.6
			c1.9-0.9,4-1.7,6-2.2c1-0.3,2-0.5,3.1-0.8c0.7-0.1,1.9-0.6,2.5,0c0.2,0.2,0.1,0.6-0.1,0.7c-0.2,0.1-0.4,0.1-0.5-0.2
			C100.1,96.3,100.1,96.2,100.2,96.1L100.2,96.1z"/>
		<path class="st3" d="M101,99.3c-0.3,0.8-1.4,1.3-2.1,1.9c-0.8,0.7-1.6,1.4-2.4,2.1c-1.6,1.4-3.1,2.9-4.6,4.5
			c-0.7,0.7-1.7-0.4-1-1.2c1.5-1.6,3.1-3.1,4.8-4.4c0.8-0.7,1.7-1.3,2.6-1.9c0.7-0.5,1.6-1.3,2.5-1.3C101,99,101.1,99.2,101,99.3
			L101,99.3z"/>
	</g>
</g>
</svg>
