<?xml version="1.0" encoding="utf-8"?>
<!-- Generator: Adobe Illustrator 23.0.1, SVG Export Plug-In . SVG Version: 6.00 Build 0)  -->
<svg version="1.1" xmlns="http://www.w3.org/2000/svg" xmlns:xlink="http://www.w3.org/1999/xlink" x="0px" y="0px"
	 viewBox="0 0 171.65 171.65" style="enable-background:new 0 0 171.65 171.65;" xml:space="preserve">
<style type="text/css">
	.st0{fill:#4C0049;}
	.st1{fill:#979797;}
	.st2{fill:#CBCBCA;}
	.st3{fill:#F9A01B;}
	.st4{fill:#4D4E4E;}
</style>
<g id="circle">
	<circle class="st0" cx="85.83" cy="85.83" r="85.83"/>
</g>
<g id="cat">
	<g id="cat_x5F_parts">
		<path class="st1" d="M97.54,40.69c-9.43-3.97-20.98-2.35-28.95,4.06c1.81,2.66,3.77,5.2,5.89,7.62c1.22,1.4,2.51,2.77,4.04,3.83
			c3.49,2.4,7.89,2.95,12.1,3.43L97.54,40.69z"/>
		<path class="st1" d="M54.5,81.49C75.22,81.92,54.5,81.49,54.5,81.49C56.4,81.48,53.39,79.94,54.5,81.49
			c1.8,2.52-10.03,4.7-10.67,7.73c-0.64,3.03-2.24,5.79-4.12,8.25c-2.26,2.98-4.96,5.6-7.32,8.5c-2.36,2.9-4.43,6.17-5.15,9.84
			c-0.71,3.67,0.14,7.81,2.89,10.34c1.36,1.26,3.1,2.05,4.88,2.56c2.38,0.68,4.99,0.86,7.27-0.07c2.29-0.93,4.14-3.17,4.1-5.64
			c-0.02-1.28-0.72-2.68-1.97-2.95c-1.25-0.27-2.4,0.67-3.45,1.41c-1.63,1.14-3.52,1.92-5.49,2.25c-0.41,0.07-0.87,0.11-1.22-0.11
			c-0.27-0.17-0.44-0.48-0.57-0.78c-0.96-2.11-1.23-4.55-0.63-6.78c1.13-4.2,4.93-6.99,8.07-10c2.86-2.75,5.35-5.97,6.77-9.68
			c3.31-8.67,23.57-9.59,15.69-14.47L54.5,81.49z"/>
		<path class="st1" d="M125.36,63.18c10.12,1.53,20.91-2.88,27.06-11.06c-2.4-2.13-4.94-4.12-7.58-5.94
			c-1.53-1.06-3.12-2.07-4.86-2.71c-3.97-1.47-8.37-0.92-12.57-0.34L125.36,63.18z"/>
		<path class="st2" d="M63.68,102.75c2.01,9.24-2.22,19.04,0.06,28.22c0.23,0.92,0.53,1.84,0.49,2.79c-0.04,0.95-0.5,1.95-1.38,2.31
			c-4.7-7.48-7.07-16.4-6.72-25.23L63.68,102.75z"/>
		<path class="st2" d="M110.81,84.68c-6.28,16.12-8.02,33.99-4.95,51.02c0.15,0.84,0.21,1.92-0.54,2.34
			c-1.01,0.57-2.03-0.74-2.43-1.83c-1.72-4.68-2.76-9.61-3.06-14.58c-0.19-3.07-1.12-5.91-1.31-9.03c0.05,1.7-6.08,4.44-6.75,6.72
			c-0.26,0.9-0.28,1.84-0.31,2.77c-0.11,4.56-0.21,9.11-0.32,13.67c-0.03,1.13-0.55,4.85-2.67,3.99c-1.04-0.43-0.74-3.78-0.88-4.73
			c-0.77-5.45-1.85-10.87-2.77-16.29c-0.84-4.96-1.87-10.28-5.48-13.79c-6.45-6.25-18.48-3.56-19,6.52
			c-0.14,2.68,0.7,5.68-0.86,7.87c-1.67,2.35-4.06,2.74-5.04,5.49c-0.8,2.25-0.69,6.57-0.57,9.03c0.1,2.11-0.07,4.89-2.11,5.42
			c-1.56,0.41-3.21-16.35-3.36-17.9c-0.29-3,2.27-4.01,2.9-6.42c0,0,0,0,0,0c1.56-5.99-5.38-11.36-6.02-17.24
			c-0.42-3.85-0.82-7.82,0.28-11.53c1.23-4.16,4.22-7.54,7.25-10.63c2.96-3.02,6.27-6.04,10.4-6.95c5.04-1.12,10.35,1.21,14.09,4.77
			c3.89,3.7,6.97,8.29,9.88,12.77c0.92,1.42,2.15,3.01,3.84,2.95c1.56-0.05,2.67-1.5,3.53-2.8c1.26-1.9,2.53-3.8,3.79-5.7
			c0.84-1.26,1.7-2.84,1.02-4.19L110.81,84.68z"/>
		<path class="st3" d="M109.92,87.46c-1.44,0.55-3.06,0.38-4.57,0.06c-3.9-0.82-7.89-2.9-9.43-6.58c-0.39-0.93-0.56-2.14,0.15-2.86
			c0.75-0.76,2.02-0.54,3.05-0.23C101.56,78.59,118.14,84.34,109.92,87.46z"/>
		<g>
			<path class="st2" d="M90.02,78.55c-3.15-2.23-5.9-4.95-8.01-8.07c-5.6-8.27-5.44-20.24,1.83-27.48
				c5.2-5.18,12.28-8.21,19.52-9.41c6.1-1.02,12.5-0.79,18.3,1.35c10.69,3.95,18.59,15.1,17.76,26.47
				c-0.6,8.17-5.55,13.92-11.82,18.56C116.64,88.1,100.91,86.25,90.02,78.55z"/>
			<path class="st4" d="M111.21,52.83c-0.49-0.86-1.32-1-2.18-0.86c-0.65,0.11-1.21,0.68-1.49,1.28c-0.33,0.69-0.28,1.5,0.25,2.07
				c0.47,0.5,1.37,0.71,1.95,0.27c0.22-0.17,0.48-0.35,0.73-0.47c-0.13,0.06-0.26,0.12-0.39,0.17c0.05-0.02,0.1-0.04,0.15-0.06
				c0.32-0.13,0.48-0.25,0.74-0.48C111.48,54.32,111.52,53.39,111.21,52.83L111.21,52.83z"/>
			<path class="st4" d="M105.62,61.42c1.12,1.14,2.79-0.29,3.42-1.32c0.85-1.39,1.17-3.68,0.69-5.26c-0.19-0.62-1.19-0.55-1.12,0.16
				c0.12,1.29,0.18,2.44-0.2,3.7c-0.19,0.63-0.54,1.24-1.05,1.64c-0.52,0.4-1.15,0.29-1.69,0.6
				C105.52,61.03,105.49,61.29,105.62,61.42L105.62,61.42z"/>
			<path class="st4" d="M112.53,61.2c-0.78-0.71-1.54-1.18-1.93-2.24c-0.42-1.14-0.41-2.35-0.56-3.54c-0.11-0.89-1.33-0.59-1.39,0.2
				c-0.14,1.87,1.08,7.5,3.83,6C112.62,61.54,112.65,61.31,112.53,61.2L112.53,61.2z"/>
			<path class="st4" d="M128.83,52.18c0,0.09-0.06,0.32-0.05,0.48c0.01,0.16,0.01,0.32,0.01,0.48c-0.01,0.47,0.15,0.9,0.42,1.25
				c0.28,0.36,0.94,0.36,1.21,0c0.34-0.45,0.45-0.97,0.36-1.54c-0.03-0.16-0.06-0.31-0.09-0.47c-0.07-0.27-0.22-0.43-0.35-0.64
				C129.92,51.05,128.79,51.29,128.83,52.18L128.83,52.18z"/>
			<path class="st4" d="M88.94,49.5c-0.01,0.03-0.02,0.06-0.03,0.1c0.07-0.13,0.15-0.27,0.22-0.4c-0.7,0.67-0.64,2.07-0.19,2.86
				c0.25,0.45,0.75,0.67,1.23,0.53c0.51-0.15,0.74-0.6,0.8-1.12c-0.02,0.18-0.01,0.09,0.03-0.27c-0.02-0.15-0.04-0.31-0.06-0.46
				c-0.02-0.16-0.05-0.31-0.09-0.47c-0.1-0.41-0.21-0.8-0.52-1.08c0.07,0.13,0.15,0.27,0.22,0.4c-0.01-0.03-0.02-0.06-0.03-0.1
				C90.23,48.68,89.22,48.68,88.94,49.5L88.94,49.5z"/>
			<path class="st4" d="M83.91,57.8c0.01,0,0.03-0.01,0.04-0.01c-0.06,0.08-0.11,0.16-0.17,0.24c0-0.01,0-0.03,0-0.04
				c0.06,0.09,0.12,0.19,0.18,0.28c-0.27-0.17-0.78-0.15-1.09-0.19c-0.47-0.06-0.94-0.13-1.41-0.19c-0.92-0.12-1.84-0.21-2.76-0.26
				c-1.84-0.12-3.68-0.11-5.52-0.12c-1.1-0.01-1.18-1.66-0.07-1.71c2.08-0.09,4.18,0.11,6.23,0.42c1.02,0.15,2.03,0.34,3.03,0.56
				c0.67,0.15,1.95,0.22,2.2,0.98c0.08,0.24-0.12,0.58-0.4,0.56c-0.2-0.02-0.39-0.11-0.38-0.34C83.8,57.9,83.84,57.82,83.91,57.8
				L83.91,57.8z"/>
			<path class="st4" d="M83.4,60.95c-0.6,0.57-1.8,0.63-2.58,0.84c-1,0.27-1.99,0.57-2.98,0.88c-1.98,0.63-3.92,1.4-5.83,2.19
				c-0.91,0.38-1.33-1.07-0.45-1.46c1.95-0.86,3.95-1.51,6.01-2.03c1.01-0.26,2.03-0.46,3.06-0.64c0.79-0.14,1.95-0.51,2.71-0.17
				C83.47,60.64,83.5,60.85,83.4,60.95L83.4,60.95z"/>
			<path class="st4" d="M133.81,60.91c-0.01,0-0.03-0.01-0.04-0.01c0.05,0.08,0.1,0.16,0.15,0.25c0-0.01,0-0.03,0-0.04
				c-0.06,0.09-0.13,0.18-0.19,0.27c0.28-0.15,0.79-0.1,1.1-0.13c0.47-0.04,0.94-0.08,1.41-0.12c0.92-0.07,1.85-0.11,2.77-0.11
				c1.84-0.02,3.68,0.09,5.52,0.18c1.09,0.05,1.26-1.6,0.16-1.7c-2.07-0.2-4.18-0.12-6.25,0.08c-1.02,0.1-2.04,0.23-3.06,0.4
				c-0.68,0.11-1.96,0.11-2.25,0.86c-0.09,0.24,0.08,0.59,0.37,0.58c0.2-0.01,0.4-0.09,0.4-0.32
				C133.92,61.01,133.89,60.93,133.81,60.91L133.81,60.91z"/>
			<path class="st4" d="M134.16,64.08c0.57,0.6,1.76,0.73,2.53,0.98c0.99,0.32,1.96,0.68,2.93,1.04c1.94,0.74,3.83,1.61,5.7,2.51
				c0.89,0.43,1.39-0.99,0.53-1.43c-1.9-0.96-3.86-1.72-5.89-2.36c-0.99-0.31-2-0.57-3.02-0.8c-0.78-0.18-1.92-0.62-2.7-0.31
				C134.1,63.77,134.05,63.97,134.16,64.08L134.16,64.08z"/>
		</g>
	</g>
</g>
</svg>
