<?xml version="1.0" encoding="utf-8"?>
<!-- Generator: Adobe Illustrator 23.0.1, SVG Export Plug-In . SVG Version: 6.00 Build 0)  -->
<svg version="1.1" xmlns="http://www.w3.org/2000/svg" xmlns:xlink="http://www.w3.org/1999/xlink" x="0px" y="0px"
	 viewBox="0 0 171.65 171.65" style="enable-background:new 0 0 171.65 171.65;" xml:space="preserve">
<style type="text/css">
	.st0{fill:#006EA0;}
	.st1{fill:#CBCBCA;}
	.st2{fill:#979797;}
	.st3{fill:#4D4E4E;}
</style>
<g id="circle">
	<circle class="st0" cx="85.83" cy="85.83" r="85.83"/>
</g>
<g id="cat">
	<g id="cat_x5F_parts">
		<g>
			<path class="st1" d="M90.18,77.67c-11.03,0.91-19.45-4.05-30.03-5.4c-10.74-1.36-23.57,3.42-30.45,11.9
				c-6.64,8.17-1.18,18.98,6.69,24.21c5.17,3.44,11.74,4.24,17.86,4.18c7.28-0.07,13.88-0.8,20.64-3.15
				c7.07-2.46,15.79-1.64,23.16-1.64L90.18,77.67z"/>
			<g>
				<path class="st2" d="M124.71,60.18c0.49-2.69,3.62-5.38,5.87-6.58c2.24-1.19,6.01-3.28,8.48-3.53c0.92,2.58,1.87,5.4,2.41,8.19
					c0.34,1.75,1.01,3.67,1.12,5.44c0.15,2.28-0.92,3.93-1.56,6L124.71,60.18z"/>
				<path class="st2" d="M99.04,59.76c-1.74-0.58-2.84-2.55-4.42-3.53c-3-1.86-7.21-4.27-10.7-4.71c-3.23-0.4-3.52,4.27-3.99,6.99
					c-0.72,4.19-2.17,9.52-0.14,13.46L99.04,59.76z"/>
				<path class="st1" d="M90.59,105.06c-3.47-2.46-6.5-5.46-8.82-8.88c-6.16-9.1-5.99-22.29,2.02-30.26
					c5.73-5.7,13.52-9.04,21.49-10.37c6.72-1.12,13.76-0.87,20.16,1.49c11.78,4.35,20.47,16.63,19.55,29.15
					c-0.66,8.99-6.11,15.32-13.02,20.44C119.91,115.58,102.58,113.54,90.59,105.06z"/>
				<path class="st3" d="M112.92,76.74c-0.54-0.95-1.46-1.1-2.4-0.95c-0.71,0.12-1.33,0.75-1.65,1.41
					c-0.36,0.76-0.31,1.66,0.28,2.28c0.52,0.56,1.51,0.78,2.14,0.29c0.24-0.19,0.53-0.39,0.81-0.52c-0.14,0.06-0.28,0.13-0.43,0.19
					c0.06-0.02,0.11-0.04,0.17-0.06c0.35-0.15,0.53-0.27,0.82-0.53C113.22,78.38,113.27,77.36,112.92,76.74L112.92,76.74z"/>
				<path class="st3" d="M106.76,86.2c1.23,1.25,3.07-0.32,3.76-1.45c0.94-1.53,1.28-4.05,0.76-5.79c-0.21-0.69-1.31-0.6-1.24,0.18
					c0.13,1.42,0.19,2.69-0.22,4.08c-0.21,0.7-0.59,1.37-1.15,1.81c-0.57,0.44-1.27,0.32-1.86,0.66
					C106.65,85.77,106.62,86.05,106.76,86.2L106.76,86.2z"/>
				<path class="st3" d="M114.38,85.96c-0.85-0.78-1.69-1.3-2.13-2.47c-0.47-1.25-0.45-2.59-0.62-3.9
					c-0.13-0.98-1.46-0.64-1.53,0.22c-0.16,2.06,1.19,8.26,4.22,6.6C114.47,86.34,114.5,86.08,114.38,85.96L114.38,85.96z"/>
				<path class="st3" d="M133.32,76.03c0,0.1-0.07,0.36-0.06,0.53c0.01,0.18,0.01,0.36,0.01,0.53c-0.01,0.51,0.16,0.99,0.47,1.38
					c0.31,0.39,1.03,0.4,1.33,0c0.38-0.49,0.49-1.07,0.39-1.69c-0.03-0.17-0.06-0.35-0.1-0.52c-0.07-0.3-0.25-0.47-0.39-0.71
					C134.53,74.78,133.28,75.05,133.32,76.03L133.32,76.03z"/>
				<path class="st3" d="M89.39,73.08c-0.01,0.04-0.02,0.07-0.04,0.11c0.08-0.15,0.16-0.29,0.24-0.44
					c-0.78,0.74-0.71,2.28-0.21,3.15c0.28,0.49,0.83,0.74,1.35,0.59c0.56-0.16,0.82-0.66,0.88-1.23c-0.03,0.19-0.01,0.1,0.04-0.29
					c-0.02-0.17-0.04-0.34-0.06-0.51c-0.02-0.17-0.05-0.35-0.1-0.52c-0.11-0.45-0.23-0.88-0.57-1.19c0.08,0.15,0.16,0.29,0.24,0.44
					c-0.01-0.04-0.02-0.07-0.04-0.11C90.82,72.17,89.71,72.17,89.39,73.08L89.39,73.08z"/>
			</g>
			<path class="st2" d="M108.55,108.68c-5.15-0.98-23.89-4.98-26.61,1.85c-1.01,2.55,1.51,4.62,3.65,5.51
				c5.54,2.29,13.68,1.65,19.72,1.29c2.52-0.15,13.23-2.08,10.59-6.4C114.79,109.11,110.39,109.04,108.55,108.68z"/>
			<path class="st2" d="M116.61,119.27c-2.94,0.24-12.24,1.81-14.05-1.62c-1.66-3.14,4.21-4.33,6.25-4.98
				c5.23-1.67,9.73-5.24,15.26-6.33c4.89-0.96,12.44,1.03,9.45,7.51C131.09,119.11,121.56,118.86,116.61,119.27z"/>
			<path class="st2" d="M49.81,98.19c-1.06-1.25-2.27-2.38-3.56-3.39c-0.13-0.1,0-0.3,0.14-0.21c2.62,1.67,4.83,3.95,6.52,6.56
				c0.84,1.3,1.57,2.69,2.1,4.14c0.43,1.17,0.77,2.42,0.81,3.68c-0.65,0.7-1.1,1.56-1.55,2.42c-0.04-0.03-0.08-0.07-0.12-0.1
				c0.74-1.72,0.34-3.98-0.22-5.7C53.03,102.88,51.64,100.36,49.81,98.19z"/>
			<path class="st2" d="M52.48,107.96c4.03-0.8,8.11-2.22,10.76-4.98c1.44-1.5,2.39-3.33,3.86-4.81c2.47-2.49,6.2-3.77,9.92-4.34
				c3.73-0.58,7.79-0.48,11.02,1.25c3.49,1.87,5.51,5.64,4.92,9.17c-0.56,3.34-3.22,6.21-6.49,8.02c-3.27,1.81-7.09,2.7-10.9,3.33
				c-6.17,1.02-12.45,1.42-18.73,1.39c-6.14-0.03-12.46-0.51-17.96-2.89c-3.15-1.37-6.37-2.72-9.16-4.62
				c-1.29-0.88-2.88-2-3.54-3.33c-0.77-1.54-0.47-3.56,0.14-5.1c0.52-1.32,1.53-3.38,2.83-4.26c1.06-0.72,0.61,0.4,0.58,1.14
				c-0.08,1.84-0.38,4,1.08,5.51c0.74,0.76,1.55,1.48,2.44,2.12c1.87,1.33,4.07,2.22,6.42,2.68
				C43.87,109.05,48.3,108.78,52.48,107.96z"/>
		</g>
		<path class="st3" d="M83.12,84.08c0.01-0.01,0.03-0.02,0.04-0.03c-0.02,0.1-0.04,0.21-0.06,0.31c-0.01-0.01-0.01-0.03-0.02-0.04
			c0.1,0.07,0.2,0.14,0.3,0.2c-0.35-0.05-0.85,0.2-1.18,0.3c-0.5,0.15-1,0.29-1.5,0.44c-0.98,0.3-1.94,0.62-2.9,0.98
			c-1.9,0.71-3.75,1.55-5.61,2.36c-1.11,0.48-1.93-1.14-0.84-1.69c2.05-1.02,4.25-1.77,6.45-2.38c1.09-0.3,2.19-0.57,3.3-0.8
			c0.74-0.15,2.06-0.66,2.65,0c0.19,0.21,0.15,0.64-0.15,0.74c-0.21,0.07-0.45,0.06-0.54-0.17C83.04,84.23,83.05,84.13,83.12,84.08
			L83.12,84.08z"/>
		<path class="st3" d="M84.01,87.48c-0.35,0.84-1.52,1.45-2.22,2.01c-0.89,0.72-1.75,1.47-2.6,2.23c-1.7,1.52-3.31,3.16-4.87,4.83
			c-0.75,0.79-1.82-0.48-1.11-1.26c1.57-1.74,3.29-3.29,5.13-4.74c0.9-0.71,1.84-1.37,2.79-2.01c0.73-0.49,1.73-1.39,2.65-1.39
			C83.95,87.13,84.07,87.33,84.01,87.48L84.01,87.48z"/>
		<path class="st3" d="M140.3,84.36c-0.01-0.01-0.03-0.02-0.04-0.03c0.02,0.1,0.04,0.21,0.06,0.31c0.01-0.01,0.01-0.03,0.02-0.04
			c-0.1,0.07-0.2,0.14-0.3,0.2c0.35-0.05,0.85,0.2,1.18,0.3c0.5,0.15,1,0.29,1.5,0.44c0.98,0.3,1.94,0.62,2.9,0.98
			c1.9,0.71,3.75,1.55,5.61,2.36c1.11,0.48,1.93-1.14,0.84-1.69c-2.05-1.02-4.25-1.77-6.45-2.38c-1.09-0.3-2.19-0.57-3.3-0.8
			c-0.74-0.15-2.06-0.66-2.65,0c-0.19,0.21-0.15,0.64,0.15,0.74c0.21,0.07,0.45,0.06,0.54-0.17
			C140.37,84.52,140.37,84.42,140.3,84.36L140.3,84.36z"/>
		<path class="st3" d="M139.41,87.76c0.35,0.84,1.52,1.45,2.22,2.01c0.89,0.72,1.75,1.47,2.6,2.23c1.7,1.52,3.31,3.16,4.87,4.83
			c0.75,0.79,1.82-0.48,1.11-1.26c-1.57-1.74-3.29-3.29-5.13-4.74c-0.9-0.71-1.84-1.37-2.79-2.01c-0.73-0.49-1.73-1.39-2.65-1.39
			C139.47,87.42,139.34,87.61,139.41,87.76L139.41,87.76z"/>
	</g>
</g>
</svg>
